<?xml version="1.0" encoding="UTF-8"?> <svg xmlns="http://www.w3.org/2000/svg" viewBox="0 0 510.24 340.16"><defs><linearGradient id="a" x1="349.79" y1="189.37" x2="453.13" y2="189.37" gradientUnits="userSpaceOnUse"><stop offset="0" stop-color="#796eff"></stop><stop offset=".08" stop-color="#8c7cf5"></stop><stop offset=".28" stop-color="#b39be0"></stop><stop offset=".47" stop-color="#d3b3cf"></stop><stop offset=".66" stop-color="#e9c4c4"></stop><stop offset=".84" stop-color="#f6cebc"></stop><stop offset="1" stop-color="#fbd2ba"></stop></linearGradient></defs><g data-name="Layer 13"><path fill="none" stroke="#231b3c" stroke-linecap="round" stroke-miterlimit="10" stroke-width="3.944" d="M126.93 130.03h245.12v182.18H126.93z"></path><path fill="#fff" stroke="#6b3eff" stroke-miterlimit="10" stroke-width="3.702" d="M249.37 129.77v180.09l-.11 2.12-102.02-24.23V105.58l102.13 24.19z"></path><path style="mix-blend-mode:multiply" fill="none" stroke="#bcc5cd" stroke-linecap="round" stroke-miterlimit="10" stroke-width="4.052" d="M240.33 145.72l-74.99-17.76M240.33 163.81l-74.99-17.76M240.33 181.9l-74.99-17.76M240.33 200l-74.99-17.76M240.33 218.09l-74.99-17.76M240.33 236.19l-74.99-17.76M240.33 254.28l-74.99-17.76M240.33 272.38l-74.99-17.76M240.33 290.47l-74.99-17.76"></path><path opacity=".58" fill="url(#a)" d="M349.79 169.1h103.34v40.53H349.79z"></path><path fill="#fff" stroke="#6b3eff" stroke-miterlimit="10" stroke-width="3.702" d="M249.37 129.77v180.09l.12 2.12 102.02-24.23V105.58l-102.14 24.19z"></path><path style="mix-blend-mode:multiply" fill="none" stroke="#bcc5cd" stroke-linecap="round" stroke-miterlimit="10" stroke-width="4.052" d="M258.42 145.72l74.99-17.76M258.42 163.81l74.99-17.76M258.42 181.9l74.99-17.76M258.42 200l74.99-17.76M258.42 218.09l74.99-17.76M258.42 236.19l74.99-17.76M258.42 254.28l74.99-17.76M258.42 272.38l74.99-17.76M258.42 290.47l74.99-17.76"></path><path d="M251.55 105.11a115.55 115.55 0 0187.38-94.21" fill="none"></path><path d="M338.31 9c.2 0 .05-.34.07-.41-.32.16-.04.49-.07.41zM335.24 10.6l.02-.15-.39.45.37-.3zM332.22 11.45c.45.48 1.06-.42 1.66-.38l.12.11.12-.53c-.64.27-1.39.82-1.9.8zM330.24 10.72c.17.19-.29.29.4-.05h-.09a2.11 2.11 0 01-.31.05zM330.55 10.64c.32-.11-.26-.12 0 0zM329.12 11.22l.35-.33c-.12-.1-.51 0-.4-.15-.39.26-.26.35.05.48zM328.86 11.76l.19-.15c-.05-.04-.12-.04-.19.15zM329.45 11.28l-.4.33c.09.07.15.25.19-.14.01.18.05-.01.21-.19zM329.73 11.28c.28.05.61 0 .25.36.77-.32.53-.64-.25-.36zM332.24 12.08l.36.07.21-.27c-.1.12-.64.03-.57.2zM326.43 11.82c0 .13.25.26.33.41L327 12c-.16 0-.49 0-.57-.18zM326.76 12.23l-.39.35c.42-.11.46-.23.39-.35zM328.99 12.41l.61-.69-.75.74.14-.05zM324.67 12.42l.16-.37-.31.59.15-.22zM323.54 12.91c.1-.29-.41-.27-.26-.49a2.1 2.1 0 00-.67.72 1.16 1.16 0 01.93-.23zM322.31 13.55a2.91 2.91 0 00.3-.41 1.21 1.21 0 00-.3.41zM325.57 12.79a.6.6 0 00-.48-.2l.3.26zM325.4 12.86l-.4.14zM325.62 12.78h-.05s.05.05.05 0zM327.69 12.51c-.2.28-.69.67-.05.77.11-.28-.26-.35.05-.77zM326 13.12l.51-.09c0-.09-.17-.19-.07-.32zM325.79 13.3l.2-.18-.19.03-.01.15zM323.25 13.54a1.41 1.41 0 01-.62.44 3.87 3.87 0 00.86-.22c0-.12.05-.35-.24-.22zM324.31 13.23s.02.06 0 0zM320.12 14.99l.07.04-.02-.06-.05.02zM323.56 13.8a.45.45 0 00.41-.29 2.42 2.42 0 01-.48.25c.01.05.01.08.07.04zM321.66 14a2 2 0 00.43 0c-.09 0-.42-.13-.43 0zM324.16 13.21c-.06-.07-.04-.04 0 0zM324.16 13.21a1.37 1.37 0 00-.19.3 1.44 1.44 0 00.3-.24.39.39 0 01-.11-.06zM320.26 17.39c-.1-.32.31-.82.9-.69.35-.42-.34-1.29-1-1.67 0 .14.09.26-.3.64.23.09 1.19-.06.91.38-.55.42-.55.11-.91.08.41.26-.55.87-.18 1.36l.45-.42c.08.08-.06.3.13.32z" fill="#7e56ff"></path><path d="M321.09 14.68l.18-.12a1.87 1.87 0 01-.84-.12c-.26.28-.28.42-.26.53l1-.36zM322.14 14.22c0 .39-.43.71 0 1 .56-.24.29-.43.57-.71-.89.44.19-.28-.55-.21a2.15 2.15 0 01.47-.28 3.26 3.26 0 01-.54 0c.05 0 .08 0 0 0a.34.34 0 010 .14c-.29 0-.07-.07 0-.14V14l-.85.53a3.07 3.07 0 00.9-.31zM327.39 14.17a.13.13 0 01-.06-.07c-.04.06-.05.1.06.07zM326.94 14.1c.05-.07.06-.23.29-.27s.06.16.1.27c.1-.13.38-.4-.09-.42l-.05.07c-.41 0-1-.24-1-.31a2.4 2.4 0 00.75.66zM324.55 14.23l-.7.46.5.13-.09-.16c.46-.1.29-.28.29-.43zM319.97 14.86l-.05-.39-.23.68.28-.29zM319 15.33l-.09-.32-.19.3.28.02zM275.06 54.8l-.07.25a.88.88 0 00.07-.25zM276.12 53.47l-.1-.13c-.02.12.05.18.1.13zM296.16 28.43c-.47 0-1.07-.18-.82.09l.3.22a.9.9 0 01.52-.31zM284 41.71h.15c0-.15-.05-.28-.08-.41-.07.13-.07.26-.07.41zM284.86 42.92l-.49.16a1.61 1.61 0 00.49-.16zM270.09 62.63l.16.42c.23-.36-.02-.3-.16-.42zM309.16 20.25a2.08 2.08 0 00-.77.18c.42 0 .83.12.77-.18zM272.45 52c0 .16 0 .25.05.3.04-.2.04-.3-.05-.3zM307.63 20.87h.18a2 2 0 01.58-.44.72.72 0 00-.76.44zM256.24 93.08l-.06.06c.05.02.06-.01.06-.06zM250.52 102a2.25 2.25 0 010-.41 1 1 0 000 .41zM315 17c.2-.12 0 0 0 0zM316.59 17.77a.23.23 0 000 .2.26.26 0 010-.2zM306.79 23.91c.07.09.06.03 0 0zM315.37 17a1.12 1.12 0 00-.31 0 1.51 1.51 0 00.31 0zM315.26 16.84l.19-.06c0-.06-.04-.09-.19.06zM314.71 17.12a1.32 1.32 0 01.35-.12h-.07zM261.53 75.77c-.01.3.01.23 0 0zM293.8 34.93zM293.35 35.63c0-.55.17-.63.43-.72l-.86-.63z" fill="#7e56ff"></path><path d="M272.75 58.15l.57-.27c.05.85-.36 1.14.3 1-.89-.72 1.15-1.8.3-2.52l.4-.15c-.07.08 0 .13-.1.21.86-.26-.33-.91.34-1.56.26-.2.52-.28.5 0 .07-.24.13-.5.21-.74s.26 0 .12.16l.6-.91a3.73 3.73 0 010-.88c.29-.12 0 .18.16.21l.16-.64c.38 0 .29.56 0 .86 1.22.25.09-.57 1.35-1.11l-.24.53c.72.11.8-.38 1.52-.62-.26 0-1.57.37-1.38-.32a.79.79 0 00.41-.67c.31.25.46-.07.72-.41l.39.36c.18-.45 0-.6 0-1 .38-.36.75-.18 1.09 0 .6-.58-.86 0-.3-.81.59-.39.75-.9 1.08-1.72.46-.23.18.28.41.25v-.6c.08-.07.15 0 .19.1.12-.37-.37-.37-.09-.89-.32-.51 1.41-.29 1.4-1.26.23 0 .18.29.37.39a6.2 6.2 0 00.48-1.79l.72-.24c-.63.08-.51-.7-.39-1.37a4.17 4.17 0 00-.62 0l.44-.84c.14 0 .2.17.25.43a1.62 1.62 0 000-.2c.36-.1.46.24.51.61h-.46a1.54 1.54 0 00.43 1 .56.56 0 01.1-.3c0 .1 0 .18.11.2s0-.13.05-.33l.55.27-.13-.2 1.08-.56a6.57 6.57 0 01.93-3.22c.05.55.43.57.76.95-.63-.14-.59.87-1.17 1.26.3-.21.41 0 .41.15l.55-1.19c.26.32.4 0 .75 0-.73-.44.29-1 .49-1.55.21.18.31.47-.18.83.9 0 0-1.31.84-1.34-.11.1-.2.12-.15.26.1-.41.87-.82.88-.5l-.11.1c.8-.57 2.26-2 1.93-2.59a5.52 5.52 0 01.48.88c-.05-1-.08-1.94-.12-2.93.26.57 1.62 1.31 1.2 2.08a1.19 1.19 0 00.78-.65c-.18 0-.86-.43-.72-.61a4.59 4.59 0 001.48 0c-.27 0-.64-.86-.33-1.07 0 .15.6.71.55.88l.17-1.32c-.08.27.45.64.78.73-.19-.09.66-.47.8-.69l-.44.06c.93-.52.06-1.66.95-2.26 0 .23.44 1.14.94.91-.09-.52-.46-2.51.13-3.33l.3.12.43-.67a20 20 0 01-.37 3.66c.45-.06.28.19.74-.17.32.08 0 .49-.17.61.4-.23.82-.43 1.23-.65-.37-.42.55-1.05.25-1.4l-.92 1.32a1.78 1.78 0 01.7-2.26c.33 0 .4.92.52 1.06 0-.22.56-.82.71-.76l-.18.48c.57-.13.33-1.11 1.17-1 .21-.09 1 .24.81-.06a5.22 5.22 0 01-1.82-2.46 7 7 0 011.74 0c.58.22.15 1.3.65 1.48a.68.68 0 01.05-.49c.27 0 .16.44.56.11-.22-.52.92-.52 0-.53.35-.41.52-.19 1-.53-.35-.2-.19-1.34.19-1.73 0 .14.24.24.33.28.93-.47 1.55-.53 2.4-1 .14.07.63 0 .57.29.08-.16.1-.39.35-.55.74.14-.54.4.12.69-.13-.31.46-.77.75-1.15-.36-.38-.93.38-1.2.78a2.19 2.19 0 01.73-2.38c.64-.53.52.24.6.08 1.42-.6.61-1.68 2-1.83.64.16.41.77.65 1-.51.45-1 .22-1.42.44l.59-.07a1 1 0 01-.74.53c.55.15 2.33-1.13 3.56-1.28.13-.22.39-.51.16-.6l-.31.21c-.47-.17.42-.74-.08-.69.35-.44.69-1 1.42-1.17l.33.41c-.07-.13-.54-.08-.66.15.18-.33 1.26.14 1.29-.58l-.6-.11c.36-.44.72-1.18 1.37-1.28-.47-.34-.11.11-.76-.25.65.51-1.51.62-.62 1.06-.7-.42-.84.08-1.63-.18.09.14.33.2-.19.35a.48.48 0 010 .18.61.61 0 01.35.11c-.08.46-.84.81-1 1.11-.32.06 0-.23-.2-.32l-.26.45c-.19-.31-1-.19-.45-.7l-.61.27a1.56 1.56 0 00-1.2.46c-.31.08-.52.74-.41.35l-.82.69-.05-.07c-.95.44-1.61 1.51-2.95 1.54a2.66 2.66 0 01-1.07.73l-.26-.22c-.34.32-1.34.4-1.34.78-.86-.49-1.95 1-2.7 1.28l.2.37a5.72 5.72 0 00-1.45 1.05l.23.28c-.31.58-1.37.62-2.11 1.17 0-.15.18-.25.37-.27-1.38-.06-1.58 1.78-2.72 1.89a.57.57 0 01-.48.35.09.09 0 000-.05l-.08.06h-.39a1.31 1.31 0 00.35 0 3 3 0 00-.48.57l-.34-.25v.05c-.31.05-.07.29.23.44a1.1 1.1 0 00-.16.41c-.57-.37-.47.61-1.13.26 0 .36-1 1.07-.66 1.71-.06-.06-.15 0 0-.14-.29.13-.59.27-.69.6l-.42-.31-.11.95c-.52 0-.77 0-.68-.56-.41 1.09-.5.68-.78 1.67l-.18-.28c-.22.21-.31.86-.62.78-.91 0-2.63 2.11-4.27 2.91.9.47-.89.24-.44.83-.22-.09-.49 0-.42-.35-.5.77-1.24.66-1.25 1.54-.23-.09-.09-.38-.25-.41s-.07.34-.23.31 0-.23 0-.4c-.63.68-.2 1.25.22 1.76-.55.11-.68.3-.61.84-.26 0-.61 0-.27-.46-.24.2-1.6 1.17-1.24 1.56-.16 0-.34.28-.35.39a7.9 7.9 0 00-1 1.07l.19-.08c.28.63-.29.52-.61 1v-.06c-1.22.65-.21.56-1.47 1.16l.34.21c.55.64-1.11.52-1.35 1.3l.35-.06c0 .5-1.62.12-2 .36-.12 0 0-.18 0-.31-1.09.5.3.44-.12 1.12-.31-.06-.43-.59-.82-.22-.35.06-.27 1.8-1.14 2 .27 0 .53 0 .43.41-.29.49-1.59.7-1.38 1.52a.23.23 0 01-.19 0c-.12.45-.61 1.31-.47 1.74-1.33-.48-1.06 2.54-2.06 1.82l-.7 1.14-.08-.11a1.5 1.5 0 00-.4 1.5c-.18.11-.19-.07-.24-.12a2.27 2.27 0 00-1 2.25l-.4-.13c.05.36-1.52 1.17-1.75 2.47a.29.29 0 01-.09-.21c-.28 1.43-2.65 2.29-1.61 3.46l-.11 1c.65-1 .48.47.92.16-.14.45-.95.83-.75.3h.1c-.58-.56-.92 1.14-1.37.87-.55 1-1.15 2-1.73 3a25.34 25.34 0 00-1.65 2.88h.64l-.34.67c-.21.12-.53 0-.29-.43-.43.11-.11.94 0 1-.65.87-.47-.66-.61-.37l-.14.42.1-.06c.08.42.3.56 0 1.14-.28.32-.43 0-.51.18 0 0-.08 0-.12.22l-.41.86.58-.17c.06.48-.36.82.3.62-1 .28-1.63 3.16-2 3.44a3.09 3.09 0 01-.37 1.88c.15-.13.69 0 .42.51-1-.58-.86.9-1.75 1.12.64-.25-.43 1.73.5 1.29-.25.47-.4-.1-.77.2a4.36 4.36 0 01-.59 1.93 8.52 8.52 0 00-.79 2.1c.13.06.41-.12.53.25l-.92.58c0 .31.73.49.09.89.14 0 .35-.11.33.1a16 16 0 00-1.24 4.38 10.52 10.52 0 01-1.54 4.38c.35-.35.33-.08.28.24.11-.19.36.07.55.06l-.75 1.16c.49.32-.2 1.35.28 1.56v-.41c.52.63 1.48-.5 2.24-.29-.58-.7 1.28-1.34.48-2.47.2-.17.21.23.41.15-.28-.3-.29-.6 0-1.11l.06.08a16.38 16.38 0 011.31-3.71h-.41a1.2 1.2 0 01.42-.54c-.47-.55-.29 1-.83.47.89-.29.65-2.53 1.6-2.62.15-.55-.47 0-.33-.51l.28-.08-.26-.22a.67.67 0 01.7-.4v.36c.41-.39.29-1.33.42-1.46l-.29.48a17.72 17.72 0 01.59-2.42 8.12 8.12 0 00.48-2.42h-.21c0-1.19.46-.81.73-2a1.41 1.41 0 01.08-1c.1.37.6-.42.68.06.09-1.29-.06-.68-.41-1.69l.35-.07a1.11 1.11 0 01-.14-1c.05.57.58-.21.69.45 1.11-1 .11-2.06 1.24-2.25-.55-.89-.86.88-.9.49-.36.16-.39-.7-.16-1s1.26-.26 1.67-1.23v.22c.36-.27.05-.82.57-1.13-.35-.45.29-.56-.28-.9l-.26 1c.07-.57-.41-1.36.3-2a1.52 1.52 0 01.15.65c.28-.16.09-.52.39-.69.56.35-.36 1.14-.15 1.88.37-.14 0-1.21.55-.65-.64-.76.52-.9.21-1.83l.33.21a1.14 1.14 0 010-.6l.29.55c-.13-.7.84-.83.87-1.43-.5 1-.54 0-1 .34.17-1.52 1.28-.29 1.82-1.8-.05.22-.57.62-.58.24a1.94 1.94 0 01.78-.61c.43-1-.43 0-.43-.54.59-.1.08-.55.16-1l.36.19c.79-.95-.58-.68.21-1.5l.26.67.15-.57.34.32a1.52 1.52 0 01.57-1.3c-.32 0-.59-.42-.33-.89.39-.2.23.36.56-.32.13.27.31.59-.18.69.1.09.13.27.23.36.43-.2.55-.82.68-1.06a.46.46 0 01-.23.21l.09-1.23c.21-.07.25.11.28.29.07-.22 0-.44.13-.74.23.23.53.39.43.86l.22-1.08c.15 0 .6-.26.63-.09.47-.38.23-1.52.86-2a.42.42 0 010-.33c.45-.57 1.1-.91 1.23-1.85l.75-.08c.27-.63-1 .14-.52-.91.3-.76.57 0 .86-.1 0-.49-.12-1.4.68-1.73-.12.03-.28.14-.37.35zm4.8-6.77c0 .18 0 .59-.29.53-.26-.43.02-.4.29-.53zm7.84-10c0 .18-.17.26-.43.31a.72.72 0 01.43-.32zm27.49-23c-.41.02-.26.01 0-.04zm.77-.18a.12.12 0 000-.17c0 .11-.16.19-.35.25.06.03.18.05.35-.12zm-55.54 58.67l.15-.09c-.03.35-.09.22-.15.09z" fill="#7e56ff"></path><path d="M284.76 42.78a.49.49 0 01-.2-.11c0 .1.05.15.2.11zM270.06 62.55v.06zM305.05 26.82a.59.59 0 01-.36 0c.04.07.15.1.36 0zM317.05 15.8l-.4.3a.62.62 0 01.46-.07c-.05-.03-.19-.16-.06-.23zM321.93 16.38c.05-.08.14-.06.19-.13l-.09-.17c-.28.12-.41.35-.1.3zM318 16.82c.17.29.41.07.7-.13h-.06c-.08-.44-.36-.15-.64.13zM318.78 16.65a1.28 1.28 0 01.29-.13c-.07-.19-.14.02-.29.13zM314.43 17.54c.19 0-.09-.43.05-.35-.02-.46-.76.93-.05.35zM318.71 17.72l-.28-.33-.04.38.32-.05zM316.15 18.56l.54-.13c0-.06 0-.12.07-.19-.31.14-.68.22-.61.32zM316.76 18.24a.7.7 0 00.37-.25 1.85 1.85 0 00-.37.25zM318.08 18.12h-.18l-.36.13zM310.88 21.12l-.47.38c0 .15.2.15.36 0s.23-.3.11-.38zM313 21.29c-.18 0-.23-.08-.38-.16l.22.46zM311.52 22.19c0 .15-.56.75.08.38-.01-.15.46-.57-.08-.38zM303.53 26.12l.12-.09-.47-.69.35.78zM298.26 32.19c.67-.25-.18-.51.47-.68 0-.26-.53.13-.5-.1-.23.41-.46.45.03.78z" fill="#7e56ff"></path><path d="M298.23 31.41a1.22 1.22 0 00.1-.23.64.64 0 00-.1.23zM249.78 103.55l-.25.42.33-.25-.08-.17zM250.24 104.51h-.54l.43.35c-.01-.08-.02-.29.11-.35zM279.17 51.12l-.08-.11c-.15 0-.23 0-.38.18zM275.14 55.56l.07-.07-.5-.14.43.21zM272.73 60c.13-.16.18-.42.31-.58-.18.43-.84.29-.31.58zM273.88 89.52c.08 0-.12-.29-.14-.35-.08.13.19.43.14.35zM273.15 90.86l-.05-.13.01.4.04-.27zM272.09 91.49c.4.44.33-.31.63-.24l.1.09-.16-.45c-.19.2-.33.64-.57.6zM270.88 90.73c.15.17 0 .24.17 0h-.06zM271 90.68c.11-.08-.17-.13 0 0zM270.55 91.09v-.26c-.1-.1-.25 0-.25-.16-.05.19.05.33.25.42zM270.63 91.54v-.12s-.04-.04 0 .12zM270.73 91.17l-.07.25c.07.07.17.24 0-.1.11.16.06 0 .07-.15zM270.86 91.2c.15.06.3.06.25.32.24-.23-.01-.52-.25-.32zM272.35 92l.19.08v-.18c0 .1-.29-.01-.19.1zM269.48 91.37a3.29 3.29 0 00.31.39v-.19c-.06-.04-.21-.04-.31-.2zM269.79 91.76l-.05.28c.16-.04.13-.17.05-.28zM270.93 92.12l.04-.54-.09.58.05-.04zM268.85 91.73l-.05-.31.06.48-.01-.17zM268.47 92c-.05-.24-.3-.29-.3-.46-.09.1-.08.34-.07.55.03-.09.14-.17.37-.09zM268.09 92.41a1.47 1.47 0 000-.31.75.75 0 000 .31zM269.43 92.15a.59.59 0 00-.31-.23l.25.27zM269.37 92.19l-.15.06zM269.45 92.14s.02.05 0 0zM270.35 92.1c0 .22-.09.52.26.67-.06-.25-.26-.33-.26-.67zM269.75 92.48h.21c0-.08-.15-.17-.15-.29zM269.73 92.62l.02-.15-.08.02.06.13zM268.55 92.52a.33.33 0 01-.15.31.63.63 0 00.35-.08c-.04-.11-.1-.3-.2-.23zM269 92.39s0 .05 0 0zM267.5 93.37l.05.04-.03-.05-.02.01zM268.8 92.79c.11 0 .11-.08.1-.2a.57.57 0 01-.15.16s.04.07.05.04zM267.92 92.7a1.15 1.15 0 00.23.1c-.1-.08-.26-.18-.23-.1zM268.89 92.35c-.06-.07-.04-.04 0 0zM268.89 92.35a.66.66 0 000 .24.49.49 0 00.06-.17zM268.38 95.47c-.16-.29-.12-.66.23-.46 0-.31-.61-1.17-1.07-1.6a.57.57 0 01.07.51c.15.12.59.13.59.47s-.24 0-.44-.07c.3.29 0 .67.37 1.16l.09-.3c.05.08.06.25.16.29zM267.89 93.25l.05-.08a1.06 1.06 0 01-.47-.23.59.59 0 000 .42l.36-.17z" fill="#7e56ff"></path><path d="M268.25 93c.12.33 0 .56.33.83.19-.14 0-.34 0-.54-.29.27 0-.23-.35-.26a.57.57 0 01.13-.19h-.25s.06 0 0 0a.67.67 0 01.06.12c-.14 0-.07-.07-.06-.12l-.23.36a.97.97 0 00.37-.2zM270.82 93.53a.15.15 0 01-.05-.07c0 .05 0 .08.05.07zM270.57 93.42s-.05-.19.05-.2.08.14.15.24c0-.11 0-.31-.2-.37a1.19 1.19 0 01-.6-.36 4 4 0 00.6.69zM269.45 93.29l-.19.31.3.18-.1-.15c.19-.03.04-.21-.01-.34zM267.38 93.23l-.16-.34.11.55.05-.21zM267.04 93.48l-.15-.28v.22l.15.06zM247.91 102.12l-.12-.05a.31.31 0 00.12.05zM248.19 102.74l.15-.06c-.09.01-.15.03-.15.06zM258.25 98.75c-.27-.19-.65-.52-.44-.21l.21.28a.16.16 0 01.23-.07zM253.27 104.18v.1-.42c.06.14.03.21 0 .32zM253.32 105.87l-.24-.13a.35.35 0 00.24.13zM245.93 98.93l-.37.06c.07.16.2.01.37-.06zM263.43 95.78a.52.52 0 00-.36 0c.23.07.48.27.36 0zM251.43 100.69a.36.36 0 00-.23 0 .24.24 0 00.23 0zM262.78 95.92h.09c.05-.09.1-.18.2-.21-.17-.04-.32-.06-.29.21zM240.24 86.66c-.02-.03-.01-.02 0 0zM241.74 81.53a.5.5 0 01.1.14s-.02-.08-.1-.14zM265.52 94.21c.06-.07 0 0 0 0zM266.61 95.2a.35.35 0 00.06.17.43.43 0 01-.06-.17zM263.15 98.28c.05.05.04.04 0 0zM265.72 94.28h-.16zM265.61 94.14h.09s-.05-.09-.09 0zM265.42 94.29a.23.23 0 01.14 0zM244.29 92.75c-.15-.05-.11-.03 0 0zM258.16 103.11v-.02h-.02l.02.02zM258 103.5c-.11-.45 0-.44.12-.41l-.61-.84z" fill="#7e56ff"></path><path d="M247.1 100.69l-.19.34c-.59 0-.52-.26-.83.13 1-.47.49.73 1.5.26l-.14.24s-.07 0-.08-.06c-.36.49.82-.17.83.23 0 .15-.12.31-.28.29l.37.13c0 .09-.16.15-.18.07l.27.35a2 2 0 01.65 0c-.07.22-.14 0-.25.09l.39.18a.35.35 0 01-.63-.1c-.42.42-.31.48-.14.54s.4.1.31.67l-.28-.26c-.41.61-.07.77-.15 1.5.08-.3.35-1.53.77-1.32a.3.3 0 00.29.37c-.3.3-.12.43 0 .67l-.38.43c.25.17.42-.1.66-.16a2.22 2.22 0 01-.29 1.25c.21.61.23-1 .58-.54.08.62.36.7.72.73 0 .51-.17.38-.2.67a3.22 3.22 0 00.32-.32.75.75 0 01-.08.31c.16 0 .23-.58.39-.61l.08-.11c.16-.42.2-.2.31 0s.29.28.54-.25c.06.14-.11.44-.13.69a5.93 5.93 0 00.92-1.59 2.2 2.2 0 00.32.21c-.25-.31.06-1 .19-1.56-.08-.17-.15-.32-.18-.4s.16-.31.22-.46a1.11 1.11 0 010 .54 1.24 1.24 0 000-.16 1.2 1.2 0 01.1.85 2.46 2.46 0 01-.17-.27 5.91 5.91 0 000 1.17.77.77 0 01.12-.24.8.8 0 000 .26s.06-.1.1-.29l.19.57v-.26h.68a18.47 18.47 0 01.51-2.28 3.53 3.53 0 00.59 1.06c-.2-.19-.26-.09-.31.06s-.17.43-.36.48c.2-.06.27.18.26.29a2.38 2.38 0 00.31-.76c.2.37.25.22.45.3-.51-.66 0-.65.07-1 .15.23.26.5 0 .56.55.4-.19-1 .3-.69-.05 0-.09 0 0 .15a.22.22 0 01.43 0c.38-.12 1-.61.72-1.24.05.08.39.75.44.89l-.6-2.39c.25.55 1.19 1.66 1.08 2.12.13 0 .28 0 .34-.23-.1 0-.58-.67-.54-.76a4.1 4.1 0 00.87.56c-.14-.06-.53-.92-.39-1a10.19 10.19 0 01.49.9l-.15-1a2.25 2.25 0 00.59.86c-.12-.14.29-.15.33-.28l-.24-.11c.43-.09-.31-1.33.08-1.5 0 .19.49 1.07.73 1.06a9 9 0 01-.65-2.68l.2.2.09-.42a22 22 0 01.61 2.89c.24.11.2.26.39.11a.31.31 0 010 .45l.56-.14c-.3-.47.09-.7-.17-1.08l-.22.8c-.31-.46-.51-1.53-.12-1.64.2.13.44.88.54 1 0-.19.14-.5.24-.4v.34c.3.07-.06-.81.43-.49.1 0 .6.47.44.18A13 13 0 01261 98.2a4.79 4.79 0 011 .49c.38.35.41 1.13.74 1.43a1.05 1.05 0 01-.1-.4c.15.06.21.42.35.26-.26-.5.38-.18-.16-.46.09-.24.24 0 .44-.16a2.23 2.23 0 01-.36-1.41 1.65 1.65 0 00.26.33c.38-.17.71-.06 1-.26.1.1.35.15.4.4 0-.12-.06-.31 0-.38.45.3-.19.2.26.61-.15-.28 0-.54.08-.8-.3-.41-.39.11-.43.38a2.38 2.38 0 01-.29-1.86c.19-.31.35.32.35.2.58-.2-.18-1.3.51-1.13.39.28.45.75.65 1-.14.27-.48 0-.63.07l.3.06c0 .17-.09.36-.24.3.35.25.92-.46 1.5-.38 0-.17 0-.38-.11-.49l-.09.12c-.3-.23 0-.56-.26-.61 0-.32 0-.77.37-.74l.31.41c-.08-.12-.31-.16-.3 0 0-.25.71.37.49-.27l-.35-.2c0-.32 0-.9.27-.89-.35-.37 0 .08-.47-.33.5.54-.55.29 0 .82-.5-.49-.41-.09-.91-.46.09.14.24.23 0 .26a1.31 1.31 0 010 .15.72.72 0 01.22.17c.11.38-.18.54-.18.76-.14 0 0-.19-.2-.3v.33c-.2-.31-.59-.36-.45-.69l-.24.12c-.23-.1-.46-.06-.49.14-.15 0-.06.51-.11.2l-.24.41-.05-.08c-.37.17-.4 1-1.14.61-.07.15-.13.32-.38.35l-.2-.26c-.09.19-.61 0-.51.32-.6-.64-.82.27-1.16.3l.2.36c-.19.09-.3.29-.44.57l.2.31c0 .38-.64.07-.92.29-.05-.14 0-.15.14-.11-.79-.5-.46 1-1.11.66 0 .16-.09.16-.2.11a2.14 2.14 0 00-.22-.1.83.83 0 00.2.11.52.52 0 00-.18.28l-.25-.32c-.17-.07 0 .21.22.44a.87.87 0 000 .28c-.41-.51-.14.33-.59-.2.1.33-.35.5-.05 1.14 0-.08-.1-.1 0-.14-.15 0-.29 0-.29.22l-.3-.41.11.72a.84.84 0 01-.5-.71c0 .71-.16.35-.14 1l-.16-.29c-.09.07 0 .54-.23.35-.55-.4-1.18.6-2.06.45.6.76-.49-.2-.14.45a1.18 1.18 0 01-.3-.46c0 .28-.3-.24-.18.41-.08-.21-.08-.34-.13-.46v.09a2 2 0 01-.05-.31 7.06 7.06 0 00.17 1.52c-.17-.26-.18-.2-.23.33a.76.76 0 010-.59c-.08 0-.34-.16-.41.49 0-.15-.09 0-.12.1s-.15 0-.32.15v.09c-.25.85-.2.35-.33.45v-.08c.05-.93-.19.12-.08-.84l-.19.49c-.23.5-.22.26-.16-.06s.16-.69 0-.61l-.11.3c-.11.09 0-.29.21-.67s.44-.77.46-.84a.5.5 0 01.14-.12c.28-.54-.37.44-.52.4.19-.24.53-.54.54-.63s-.11 0-.29.09-.35 0-.15-.14a1.09 1.09 0 01-.52.29v-.15c0-.08.06-.19.09-.28s0-.34-.31-.29a.45.45 0 01.13-.11c-.23-.07-.5-.36-.88-.29 1.16-.74-1.06-.66.07-1.21l-.29-.43h.13c-.08-.33-.4-.31-.72-.28 0-.11.17-.11.23-.13 0-.55-.05-.57-.79-.66l.34-.22c-.26 0 .27-.91-.37-1.13a.5.5 0 01.19 0c-.67-.27.45-1.65-1-1.18l-.49-.15c.1.46-.6.22-.74.5-.16-.13.19-.62.36-.45l-.05.06c.73-.27 0-.63.47-.85-.43-.8-.43-1.77-.77-2.55l-.5.36-.1-.28c.09-.14.38-.3.45-.1.26-.25-.41-.2-.53-.14 0-.48.7-.17.66-.29l-.12-.13-.05.06c-.28 0-.52.09-.6-.15s.3-.24.29-.3.05 0 0-.1l-.12-.35-.36.34c-.28 0-.13-.33-.54.07.64-.6-.34-1.38-.17-1.63a.63.63 0 01-.6-.53c-.06.1-.52.38-.57.13 1-.41.24-.61.86-1.14-.39.39-.42-.56-1 0 0-.23.37-.2.53-.45-.59-.25-.21-1.08-.61-1.55-.13.06-.29.24-.53.22l.51-.6c-.12-.07-.8.27-.45-.14-.09.08-.24.2-.31.15.12-1.36-1.57-1.89-.9-3.54-.19.27-.26.18-.32.08 0 .1-.32.15-.49.25l.27-.68c-.53.16-.27-.46-.76-.28l.15.1c-.64.08-1.09.86-1.81 1.18.73-.1-.66 1 .41.92-.11.14-.26 0-.41.16.35-.06.46 0 .42.28h-.08c.34.52.16.9.26 1.62l.33-.22c0 .16-.08.24-.14.34.61-.11-.15-.39.5-.53-.62.52.45.94-.3 1.45.1.21.38-.25.47 0l-.19.16.31-.08c0 .15-.22.36-.41.45 0 0-.09-.07-.13-.09-.17.3.33.44.28.55v-.27c.47.46.52 1.28 1.23 1.6l.14-.12c.51.26 0 .42.35.8h-.05c.21 0 .35.09.39.23-.25 0-.27.4-.56.35.55.29.37.1 1.13.09l-.24.2c.29 0 .43-.07.61.12-.33-.07-.35.34-.76.29-.37.77.95.41.18 1 .87-.15.22-.61.44-.57.2-.22.66-.1.65.09s-.84.73-.64 1.1h-.09c-.12.24.4.15.17.48.51-.13.09.24.69 0l-.31-.28c.25.12 1 0 .85.46a1.35 1.35 0 01-.45 0c-.13.18.2.12.08.31-.6.26-.34-.36-.89-.36-.2.23.62.2-.06.4.88-.24.08.43.82.38l-.36.16c.07 0 .28 0 .31.09l-.52.09c.49 0-.14.57.17.66-.22-.41.37-.3.54-.6.72.29-.77.75-.32 1.24-.09-.05.07-.39.29-.35a.93.93 0 01-.23.51c.26.35.33-.23.62-.17-.36.34.27.1.49.2l-.36.18c0 .54.8-.25.72.28l-.58.07.23.14-.42.16c.41.08.36.18.36.46.22-.18.66-.29.76-.1-.14.23-.37.09-.19.34-.25 0-.56.12-.29-.16-.13 0-.26 0-.38.09-.17.26.12.38.17.48a.21.21 0 010-.15l.69.16a.42.42 0 01-.36.13c.08.06.27 0 .36.14-.31.11-.6.27-.82.17l.5.22c-.11.08-.25.36-.38.36-.06.3.82.24.73.63a.29.29 0 01.2 0c.06.29-.18.7.37.81l-.43.44c.23.18.53-.56.93-.26s-.39.33-.49.5c.33 0 1 0 .69.47.08-.09.13-.19.05-.26zM249 104c-.11 0-.41-.06-.25-.28.43-.16.25.04.25.28zm4.89.69c0 .16-.13.15-.24 0a.17.17 0 01.25.01zm11-9.72c-.24-.03-.16.03-.04.03zm.34 0a.2.2 0 00-.07-.15c0 .09 0 .13-.1.15.03.09.1.13.13.03zm-18.92-4.26l-.07.1c-.24-.06-.09-.07.03-.09z" fill="#7e56ff"></path><path d="M253.32 105.67a.71.71 0 010-.22c-.07.09-.07.18 0 .22zM246 98.92h-.07zM262.93 100.24a.48.48 0 01-.21-.12c.05.09.11.14.21.12zM266.21 93.59l-.11.18c.07-.06.14 0 .22 0s-.15-.15-.11-.18zM268.9 94.85c0-.06.05 0 .05-.09l-.11-.16a.14.14 0 00.06.25zM267 94.63c.18.28.23.12.31 0-.18-.41-.23-.21-.31 0zM267.37 94.6a.21.21 0 01.11-.07c-.09-.17-.07-.01-.11.07zM265.41 94.59c.1 0-.19-.38-.09-.29-.15-.4-.1.7.09.29zM267.69 95.52l-.25-.33.11.32.14.01zM266.63 95.8h.24a.17.17 0 010-.15c-.14.05-.31.05-.24.15zM266.85 95.64a.16.16 0 00.11-.15.37.37 0 00-.11.15zM267.5 95.78l-.09-.05-.15.06.24-.01zM264.6 96.91l-.14.22c.05.14.15.18.2.08s.04-.21-.06-.3zM265.79 97.52c-.1 0-.15-.12-.25-.22l.26.45zM265.26 98c.06.13-.08.52.16.34-.05-.16.09-.34-.16-.34zM261.9 99.22l.05-.04-.44-.71.39.75zM260.25 102.53c.34 0-.21-.48.13-.39 0-.21-.28-.07-.31-.25-.07.26-.17.2.18.64zM260.07 101.89a.81.81 0 000-.16 1 1 0 000 .16zM241.86 80.75l.08-.24-.2.23.12.01zM241.15 80.72l.46-.28-.48.12s.12.07.02.16zM248.59 105.59l.1-.08a.44.44 0 000-.39zM247.34 102.14l.01.05.4-.29-.41.24zM245.9 100.59c0 .08.15.12.17.21-.16-.13.36-.49-.17-.21z" fill="#7e56ff"></path><path d="M110.91 180.05A115.5 115.5 0 0158.85 62.59" fill="none"></path><path d="M56.85 62.4c.06-.19-.29-.18-.35-.22.03.35.44.23.35.22zM57.11 65.85l-.13-.08.26.54-.13-.46zM56.7 69c.62-.22 0-1.14.31-1.67l.14-.07-.44-.31A6.33 6.33 0 0156.7 69zM55.25 70.5c.23-.08.15.38.11-.39l-.06.07c-.01.06-.02.16-.05.32z" fill="#c4ccd3"></path><path d="M55.3 70.18c0-.34-.22.19 0 0zM55.27 71.72l-.17-.46c-.14.08-.2.47-.29.32.08.42.19.42.46.14zM55.66 72.18l-.07-.24c-.06.06-.08.06.07.24zM55.45 71.44l.14.5c.1 0 .29 0-.05-.22.17.05.02-.06-.09-.28zM55.56 71.18c.16-.23.27-.54.43-.08.01-.84-.41-.76-.43.08zM57.29 69.19l.2-.3-.16-.3c.08.15-.23.6-.04.6zM54.75 74.43c.13 0 .35-.12.51-.14l-.12-.29c-.14.11-.2.42-.39.43zM55.26 74.29l.18.49c.05-.43-.04-.51-.18-.49zM56.3 72.31l-.38-.83.38.98v-.15zM54.62 76.29l-.28-.3.41.52-.13-.22zM54.62 77.52c-.23-.21-.42.26-.56 0a2.1 2.1 0 00.4.9 1.12 1.12 0 01.16-.9zM54.71 78.9a2.54 2.54 0 00-.25-.44 1.24 1.24 0 00.25.44zM55.31 75.6a.55.55 0 00-.38.36l.36-.17c.01-.06.01-.12.02-.19zM55.3 75.79v.41c0 .06-.03-.2 0-.41zM55.31 75.55s.05.02 0 0zM55.89 73.54c.17.3.34.9.68.36-.22-.22-.42.1-.68-.36zM55.77 75.35l.12-.51c-.09 0-.23.09-.32-.06z" fill="#c4ccd3"></path><path fill="#c4ccd3" d="M55.86 75.6l-.09-.26-.04.19.13.07zM55.08 78a1.54 1.54 0 01.16.74 3.84 3.84 0 00.14-.88c-.11-.01-.3-.15-.3.14zM55.22 76.94s.06 0 0 0zM55.18 81.48l.06-.05-.06-.01v.06z"></path><path d="M55.45 77.85a.49.49 0 00-.11-.49 3 3 0 010 .53s.12.03.11-.04zM54.85 79.66a2.7 2.7 0 00.21-.38c-.12.11-.3.34-.21.38zM55.13 77.06c-.13.03-.05.03 0 0zM55.13 77.06a1.08 1.08 0 00.21.3 1.45 1.45 0 00-.11-.37.26.26 0 01-.1.07zM57.43 82.3a.7.7 0 01-.27-1.1c-.25-.49-1.32-.19-1.92.23.14 0 .27 0 .47.53.17-.18.41-1.12.71-.69.16.67-.12.55-.29.87.41-.27.59.85 1.19.7l-.21-.58c.09-.01.24.2.32.04zM55.27 80.47v-.21a1.85 1.85 0 01-.45.71c.16.35.28.43.39.45v-1z" fill="#c4ccd3"></path><path d="M55.27 79.32c.35.17.48.67.87.38 0-.61-.27-.44-.41-.81.05 1-.19-.29-.42.42a2.67 2.67 0 01-.07-.54 3.82 3.82 0 01-.18.51c.05 0 .08-.06.05 0h.13c-.09.28-.1 0-.13 0h-.06l.16 1a3.62 3.62 0 00.06-.96zM57.29 74.47a.1.1 0 01-.08 0c.04.1.06.12.08 0zM57.05 74.86a.36.36 0 01-.13-.37c.12-.19.17 0 .29 0-.09-.14-.22-.5-.42-.08v.07c-.15.39-.63.87-.68.79a2.44 2.44 0 00.94-.41zM56.23 77.11l.14.82.32-.4h-.18c.09-.45-.14-.36-.28-.42zM55 81.57l-.37-.12.52.49-.15-.37zM55.04 82.64l-.32-.04.19.29.13-.25zM74 138.6l.2.15a1.26 1.26 0 00-.2-.15zM73.16 137.1H73c.12.07.19.06.16 0zM58.07 108.8c-.22.42-.59.91-.24.79l.32-.19a.83.83 0 01-.08-.6zM65.46 125.23l.06-.13-.41-.1zM66.92 124.9v.51a1.8 1.8 0 000-.51zM79.2 146.25h.45c-.24-.33-.29-.07-.45 0zM55.68 93.62a2.07 2.07 0 00-.13.78c.16-.4.45-.71.13-.78zM70.33 139.87c.13.1.22.12.29.08-.13-.11-.23-.15-.29-.08zM55.65 95.28a1.15 1.15 0 00.06-.17 2.18 2.18 0 01-.16-.71.73.73 0 00.1.88zM101.71 171v.08c0 .08.04-.08 0-.08zM107.62 179.76a1.93 1.93 0 01-.36-.2.72.72 0 00.36.2zM55 87c0-.22 0 0 0 0zM56.34 85.82a.21.21 0 00.18.09.3.3 0 01-.18-.09zM58.11 97.25c.07-.05.05-.04 0 0zM55.12 86.62a2.11 2.11 0 00-.1.3 1.24 1.24 0 00.1-.3zM55 86.68v-.2c0-.05-.12 0 0 .2zM55 87.29a1.51 1.51 0 010-.37v.37zM87.89 159.3a.13.13 0 010 .06c.27.07.19.01 0-.06zM63.11 113.53zM63.57 114.22c-.51-.2-.51-.4-.49-.68l-.92.54z" fill="#c4ccd3"></path><path d="M76.13 142v-.63c.81.28.91.78 1 .11-1 .53-1.2-1.77-2.2-1.27v-.43c0 .09.11.07.15.17.11-.88-1-.05-1.29-.92-.09-.32-.06-.6.17-.47-.2-.16-.41-.32-.6-.49s.11-.24.19-.05l-.59-.91a3.92 3.92 0 01-.81-.33c0-.32.17.07.26-.06l-.53-.41c.14-.35.62 0 .78.34.72-1-.48-.3-.48-1.68l.39.44c.39-.62 0-.9 0-1.65-.12.24-.28 1.59-.84 1.15a.78.78 0 00-.44-.65c.35-.18.11-.45-.1-.82l.48-.21c-.34-.35-.56-.2-.9-.34-.18-.49.14-.76.39-1-.29-.78-.33.8-.86 0-.12-.7-.53-1-1.15-1.67 0-.52.33-.06.39-.28l-.55-.21c0-.1.09-.13.16-.14-.3-.26-.49.19-.86-.27-.59.1.3-1.41-.6-1.79.07-.22.33 0 .5-.18a6.11 6.11 0 00-1.45-1.15l.07-.76c-.18.61-.85.2-1.42-.18a4 4 0 00-.24.57l-.61-.74c0-.13.25-.11.5-.06l-.17-.1c.06-.37.4-.33.76-.22-.06.13-.12.28-.18.42a1.55 1.55 0 001 0 .73.73 0 01-.24-.21.28.28 0 00.23 0s-.1-.09-.28-.18l.47-.4h-.24l-.09-1.21a6.54 6.54 0 01-2.47-2.13c.52.17.69-.16 1.18-.32-.39.52.56.89.69 1.57-.07-.36.18-.37.29-.31l-.87-1c.4-.12.21-.35.26-.71-.69.5-.83-.67-1.24-1.06.26-.12.56-.1.71.5.35-.83-1.21-.5-.91-1.3.05.14 0 .23.19.24-.34-.26-.41-1.12-.13-1l.06.14c-.21-1-.91-2.85-1.62-2.79a5.05 5.05 0 011-.1c-.92-.34-1.82-.69-2.74-1 .62 0 1.84-1 2.39-.28a1.18 1.18 0 00-.3-1c0 .17-.73.61-.84.42.48-.76.23-.5.59-1.36-.07.26-1 .25-1.12-.12.15 0 .89-.27 1-.16l-1.14-.68c.22.19.77-.15 1-.42-.16.14-.17-.79-.32-1l-.12.44c-.1-1.06-1.5-.72-1.7-1.77.22.09 1.22 0 1.21-.5-.51-.13-2.49-.56-3-1.43l.24-.24-.45-.65a20.4 20.4 0 013.22 1.78c.12-.44.28-.18.13-.75.21-.26.44.23.5.4-.06-.46-.07-.92-.11-1.38-.53.17-.75-.92-1.19-.78l.85 1.35c-.53.18-1.7-.53-1.8-1.52.17-.29 1 0 1.18-.06-.21-.09-.53-.85-.42-1l.37.35c.1-.57-.89-.74-.5-1.48 0-.23.6-.78.27-.77a5.22 5.22 0 01-3 .71 7.42 7.42 0 01.68-1.61c.43-.45 1.25.38 1.62 0a.73.73 0 01-.44-.24c.09-.25.48 0 .33-.47-.57 0-.11-1-.5-.18-.24-.47 0-.55-.09-1.13-.33.24-1.31-.36-1.52-.86a.56.56 0 00.39-.19c-.07-1 .12-1.64 0-2.61.13-.1.24-.58.5-.41-.11-.13-.32-.24-.37-.53.42-.63.16.65.69.16-.34 0-.53-.73-.76-1.14-.5.18 0 1 .24 1.4-.7.08-1.51-.6-1.9-1.6-.23-.81.42-.39.31-.53 0-1.54-1.31-1.22-.9-2.53.4-.54.87-.08 1.18-.21.22.65-.2 1-.15 1.48l.17-.56a1 1 0 01.2.88c.35-.45-.12-2.58.22-3.77-.15-.21-.32-.56-.49-.38l.08.37c-.35.36-.52-.69-.67-.21A2.36 2.36 0 0156 85.3l.5-.15c-.15 0-.29.47-.13.67-.23-.29.64-1.1 0-1.41l-.35.5c-.26-.5-.79-1.13-.63-1.76-.5.29 0 .14-.53.6.73-.4 0 1.63.73 1-.66.47-.25.8-.81 1.42.17 0 .31-.22.25.32a.53.53 0 01.15.11.7.7 0 01.25-.28c.39.25.41 1.1.62 1.37-.07.32-.2-.12-.37.06l.31.41c-.37.06-.58.87-.82.14v.7a1.52 1.52 0 000 1.28c-.06.32.47.77.16.51l.3 1h-.09c0 1 .77 2.07.25 3.32a2.59 2.59 0 01.21 1.27l-.31.16c.16.43-.16 1.38.19 1.53-.79.6.15 2.19.11 3h.42a5.71 5.71 0 00.53 1.67l.35-.1c.41.51 0 1.5.24 2.4-.15 0-.15-.27-.1-.45-.6 1.24 1 2.16.66 3.24a.57.57 0 01.13.59.09.09 0 000-.06.36.36 0 000 .1c0 .12-.08.25-.11.38a1.07 1.07 0 00.12-.32 3 3 0 00.32.71l-.36.21v.06c-.08.31.23.17.49 0a1.34 1.34 0 00.32.31c-.57.37.38.67-.22 1.14.36.1.61 1.32 1.32 1.28-.08 0-.1.12-.15 0a1.09 1.09 0 00.28.87l-.45.26.84.48c-.19.48-.31.7-.8.41.85.8.43.72 1.23 1.37l-.32.06c.1.29.67.62.47.88-.37.82.9 3.24 1 5.07.78-.64-.13.91.59.72-.18.18-.21.45-.49.25.51.77.11 1.4.92 1.76-.18.17-.38-.06-.48.07.08 0 .3.19.2.33s-.22 0-.37-.15c.38.84 1.07.67 1.7.49-.11.54 0 .74.54.89-.14.23-.25.56-.53.06.09.31.44 1.93.94 1.76-.09.14.13.43.22.48a9.11 9.11 0 00.58 1.36v-.21c.69 0 .37.47.67.95h-.07c.12 1.37.43.41.48 1.8l.33-.23c.81-.25 0 1.23.67 1.76l.08-.34c.44.23-.53 1.52-.44 1.94 0 .11-.17-.07-.28-.16 0 1.19.53-.11 1 .55-.18.26-.72.15-.52.66-.09.35 1.54 1 1.41 1.86.11-.25.22-.49.54-.24.34.46 0 1.74.86 1.86a.24.24 0 01-.1.18c.37.28 1 1.07 1.41 1.11-1 1 1.92 2 .86 2.61l.77 1.09h-.13a1.51 1.51 0 001.22.95c0 .21-.14.16-.2.18.44 1.19.58 1.26 1.68 1.77L76 148c.36.09.49 1.86 1.59 2.58a.29.29 0 01-.23 0c1.2.82 1.06 3.33 2.54 2.84l.85.49c-.63-1 .62-.26.51-.78.36.3.39 1.2 0 .8v-.11c-.74.31.69 1.31.26 1.61.72.9 1.37 1.84 2 2.75a27.08 27.08 0 002 2.66l.28-.59.49.58c0 .24-.17.51-.52.1-.06.44.82.48.93.4.53.94-.8.17-.59.42l.33.29v-.12c.42.1.63-.06 1.05.44.19.38-.13.41 0 .54s0 .09.16.2l.62.72.08-.6c.46.13.61.65.69 0-.14 1 2.25 2.75 2.38 3.18a3.14 3.14 0 011.58 1.08c-.06-.19.23-.65.63-.18-.91.64.49 1.14.34 2.05 0-.69 1.42 1.07 1.39 0 .33.41-.25.33-.13.78a4.23 4.23 0 011.54 1.31 9.24 9.24 0 001.52 1.56c.11-.1 0-.43.44-.39l.17 1.07c.28.14.74-.47.85.27 0-.15 0-.36.23-.27a15.89 15.89 0 003.53 2.88 10.5 10.5 0 013.42 3.13c-.19-.46.06-.33.33-.16-.14-.17.2-.3.27-.48l.77 1.15c.49-.33 1.16.72 1.55.35l-.39-.14c.78-.22.12-1.55.62-2.17-.88.26-.72-1.71-2.08-1.41-.08-.26.29-.1.3-.32-.39.14-.67 0-1-.42h.1a15.46 15.46 0 01-2.89-2.67l-.13.39a1.19 1.19 0 01-.33-.59c-.7.21.8.66.11.94.08-.93-2.08-1.59-1.78-2.5-.45-.35-.15.45-.6.1v-.28l-.31.15a.65.65 0 01-.09-.8c0 .07.23.11.32.16-.19-.53-1.11-.78-1.18-1l.33.46a17.58 17.58 0 01-2-1.5 8.53 8.53 0 00-2-1.39v.21c-1.08-.51-.57-.74-1.59-1.48h.06a1.5 1.5 0 01-.85-.46c.38.06-.15-.71.32-.6-1.15-.59-.64-.21-1.71-.29l.07-.35a1.12 1.12 0 01-1-.28c.54.18 0-.62.69-.46-.45-1.41-1.85-.92-1.58-2-1 .16.47 1.14.1 1 0 .4-.8.09-1-.27s.27-1.25-.47-2c.07.08.12 0 .19.12-.11-.44-.73-.37-.81-1-.56.15-.4-.48-.93-.1l.77.61c-.5-.28-1.42-.16-1.76-1.08a1.61 1.61 0 01.65.12c0-.32-.44-.29-.48-.62.54-.38.91.77 1.67.87 0-.39-1.1-.5-.38-.76-1 .29-.62-.83-1.6-.91l.32-.23a1.17 1.17 0 01-.54-.26h.63c-.7-.16-.44-1.09-1-1.36.76.87-.19.5-.09 1.06-1.33-.75.24-1.29-.94-2.38.18.13.35.77 0 .63a2 2 0 01-.24-1c-.72-.78-.21.38-.68.18.15-.59-.47-.29-.88-.56l.31-.25c-.56-1.11-.85.26-1.29-.79h.72l-.47-.35.43-.19c-.64-.28-.71-.48-1-1-.14.29-.62.38-1 0 0-.44.42-.06-.07-.64.3 0 .66 0 .56.44.13 0 .3 0 .42-.07 0-.48-.53-.83-.7-1.05a.63.63 0 01.1.3l-1.09-.56c0-.23.19-.19.37-.15-.17-.15-.41-.17-.63-.41.31-.12.57-.34 1 0l-.92-.64c.07-.13 0-.65.18-.61-.17-.59-1.32-.81-1.55-1.59a.48.48 0 01-.3-.14c-.34-.64-.39-1.38-1.21-1.87l.23-.72c-.47-.49-.26 1-1 .12-.59-.57.25-.51.24-.83-.45-.18-1.33-.44-1.32-1.31.14.07.2.27.33.4zm-4.32-7c.15.11.52.27.37.48-.49 0-.36-.22-.37-.48zm-6.11-11.2c.17.07.18.26.12.51a.74.74 0 01-.12-.51zM55.39 89.45c-.1.4-.05.26 0 0zm.14-.78a.12.12 0 00-.17 0c.11 0 .12.22.1.42.1-.09.17-.19.07-.42zm32 74.22v-.19c.31.17.17.18.03.19z" fill="#c4ccd3"></path><path d="M66.75 124.94a.49.49 0 01-.18.14c.09.04.16.01.18-.14zM79.11 146.24h.08zM60.1 100a.73.73 0 01-.16.32c.06-.01.17-.09.16-.32zM54.71 84.61l.11.5a.62.62 0 01.12-.45c-.09.01-.22.11-.23-.05zM57.17 80.36c-.05-.07 0-.15-.05-.22h-.19c0 .32.16.53.24.22zM56 84.14c.33 0 .22-.35.16-.69v.06c-.44-.1-.29.27-.16.63zM56.18 83.37a.86.86 0 010-.32c-.18-.05-.05.13 0 .32zM55.27 87.71c.08-.17-.43-.08-.3-.18-.43-.17.56 1.07.3.18zM57.13 83.85l-.41.12.33.19.08-.31zM56.89 86.54L57 86c-.07 0-.12 0-.15-.14-.01.33-.08.7.04.68zM56.84 85.85a.69.69 0 00-.09-.43 1.65 1.65 0 00.09.43zM57.25 84.59l-.09.16v.38c.02-.13.05-.36.09-.54zM57.16 92.39l.16.58c.15 0 .22-.12.15-.33s-.18-.35-.31-.25zM58.15 90.52c-.08.16-.17.18-.3.28h.52zM58.4 92.22c.14 0 .47.81.38.08-.15-.05-.31-.63-.38-.08zM58.85 101.12l-.03-.15-.82.16.85-.01zM62.35 108.36c0-.72-.54 0-.44-.71-.23-.11-.08.54-.29.42.3.36.24.6.73.29zM61.62 108.07a1.41 1.41 0 00-.17-.18.74.74 0 00.17.18zM108.78 181.06l.28.4-.09-.4h-.19zM109.85 181l-.2.51.49-.26c-.14-.01-.29-.08-.29-.25zM72.2 133.37h-.13c-.09.13 0 .23 0 .42zM74.7 138.82l-.04-.1-.32.41.36-.31zM77.83 142.79c-.09-.18-.31-.33-.4-.51.31.33-.08.88.4.51zM86.92 190.61c-.08 0 0 .31.06.38.1-.12-.09-.46-.06-.38zM87.94 189.46l.02.14.07-.38-.09.24zM89.11 189.1c-.29-.53-.4.22-.67.09l-.08-.12v.48c.28-.15.52-.55.75-.45zM90.12 190.1c-.11-.2.07-.23-.17 0zM90 190.13c-.11.05.14.16 0 0zM90.52 189.82l-.1.25c.08.12.23.1.21.21.13-.16.05-.28-.11-.46zM90.54 189.37l-.05.1c.03.05.06.07.05-.1zM90.36 189.71l.13-.24c-.06-.08-.12-.26-.06.09-.04-.17-.03 0-.07.15zM90.24 189.65c-.13-.09-.28-.13-.18-.37-.28.17-.06.55.18.37zM89 188.5l-.17-.13v.22c-.05-.11.17.08.17-.09zM91.62 189.79a3.48 3.48 0 00-.21-.45l-.08.18c.09.06.23.09.29.27zM91.41 189.34l.11-.26c-.17.03-.17.13-.11.26zM90.37 188.74l-.15.52.21-.55-.06.03zM92.31 189.58l-.01.31.05-.47-.04.16zM92.75 189.39c0 .25.23.35.19.52a.93.93 0 00.2-.52c-.07.13-.14.14-.39 0zM93.21 189.08a1.8 1.8 0 00-.07.31.89.89 0 00.07-.31zM91.85 189c0 .07.12.25.24.29l-.17-.31zM91.91 189h.16zM91.83 189s-.01 0 0 0zM90.94 188.89c0-.22.2-.49-.1-.71 0 .25.16.38.1.71zM91.6 188.65h-.21c0 .09.11.2.09.31zM91.66 188.52l-.05.13.08.01-.03-.14zM92.79 188.88a.33.33 0 01.21-.27.73.73 0 00-.36 0c.02.11.03.32.15.27zM92.35 188.91s-.02-.05 0 0zM94 188.29l-.03-.06.01.06H94zM92.6 188.56c-.1 0-.12.05-.14.17a.57.57 0 01.18-.12c-.01-.05-.02-.08-.04-.05zM93.44 188.84a.9.9 0 00-.2-.14c.08.09.21.23.2.14zM92.42 189c.04.05.03 0 0 0zM92.42 189a.8.8 0 000-.24.62.62 0 00-.1.16zM93.62 186c.08.32 0 .67-.33.4a3.5 3.5 0 00.68 1.79.54.54 0 010-.5c-.12-.15-.55-.27-.48-.6s.24.05.42.17c-.23-.35.13-.66-.11-1.21l-.15.27c.02-.05.05-.22-.03-.32zM93.6 188.32l-.07.06c.11 0 .21.13.41.33a.59.59 0 000-.42l-.39.08z" fill="#c4ccd3"></path><path d="M93.19 188.49c0-.35.09-.56-.14-.89-.22.1-.07.34-.16.53.34-.21 0 .22.28.32a.51.51 0 01-.17.16 1.17 1.17 0 01.24.09s0-.06 0 0a.68.68 0 010-.14c.12 0 0 .09 0 .14v.05l.3-.3c-.1-.09-.19-.05-.35.04zM90.8 187.39v.07s.05-.08 0-.07zM91 187.55s0 .19-.09.19-.05-.17-.09-.28c0 .11-.11.31.11.42v-.06a1.29 1.29 0 01.5.49 4.42 4.42 0 00-.43-.76zM92.08 187.93l.26-.26-.25-.25.06.18c-.15-.02-.09.19-.07.33zM94.09 188.44l.08.37.01-.56-.09.19zM94.47 188.28l.09.31.04-.22-.13-.09zM108.73 177.19l-.12-.05a.31.31 0 00.12.05zM109 177.83l.15-.05c-.15.01-.15.02-.15.05zM104.22 185.11c.22.25.51.65.38.31l-.14-.33a.16.16 0 01-.24.02zM110.21 181l-.11-.08.15.31a2.23 2.23 0 00-.04-.23zM109.17 179.74l.27.15a1.43 1.43 0 00-.27-.15zM107 173.88h-.38c.03.2.17.06.38 0zM98.5 186.85a.61.61 0 00.35.11c-.2-.15-.4-.41-.35-.11zM112.33 176a.31.31 0 00-.23 0 .24.24 0 00.23 0zM99.18 186.85l-.09-.06a.32.32 0 01-.24.17c.15.11.29.17.33-.11zM102.08 161.26s-.01-.01 0 0zM103.91 156.25a.48.48 0 01.09.14s0-.08-.09-.14zM96.12 187.91c-.08.05 0 0 0 0zM95.28 186.7a.65.65 0 000-.18.73.73 0 010 .18zM95.94 187.8l.14.06a.38.38 0 00-.14-.06zM96 188h-.08.08zM96.23 187.85a.19.19 0 01-.15 0zM105.73 167.6c-.15-.05-.11-.03 0 0zM105.28 180.88v.02l.01.01-.01-.03zM105.5 180.53c0 .46-.08.44-.21.38l.42.94z" fill="#c4ccd3"></path><path d="M108 175.72l-.21.32c-.59 0-.5-.29-.83.07 1-.39.43.76 1.48.36l-.16.23s-.07 0-.08-.07c-.38.47.83-.11.82.29 0 .15-.14.3-.3.27l.36.16c0 .08-.17.14-.18.05l.25.37h.57c-.13.11-.13 0-.25.07h.31c-.26.13-.57.12-.56 0-.5.24-.43.21-.3.21s.34 0 0 .13h-.16a3.65 3.65 0 01-.79.19c.24 0 1-.21 1.31-.17-.07 0-.11.07.16.12-.42 0-.3.06-.25.12h-.58c.18.05.48.07.76.14 0 .08-.49 0-.89-.06-.07 0 .74.08.91.23-.2 0 .07.14.54.46a3.1 3.1 0 01-.6-.23l.57.29s-.17-.06-.26-.1c.22.14.61.28.86.46.37.19 0 .08-.33 0s-.62-.21-.33 0c-.2-.09-.33-.23-.57-.37.29.36.21.27.56.76l-.47-.21a1.57 1.57 0 01.77 1.06 4.23 4.23 0 00.51.3 3.91 3.91 0 01-.18.35c-.11 0-.19-.22-.29-.42a.69.69 0 010 .13 1.25 1.25 0 01-.51-.67 4 4 0 00.34.23 3.44 3.44 0 00-.63-.83.18.18 0 010 .14 1 1 0 00-.15-.18s0 .06.08.18l-.45-.47.15.2a4.6 4.6 0 01-.45-.24c.19.55.33 1.42-.15 1.83a3.89 3.89 0 00-.34-1.16c.15.23.23.15.31 0s0-.3.15-.28c-.1 0-.17-.26-.19-.34a1 1 0 01-.16.57c-.12-.4-.19-.27-.37-.39.35.75-.18.63-.29.93-.09-.26-.14-.54.12-.55-.45-.51 0 1-.45.6.06 0 .1 0 .08-.13a.22.22 0 01-.44-.06h.06c-.41 0-1.14.36-1 1.05 0-.09-.2-.82-.23-1l.06 2.45c-.13-.59-.79-1.88-.58-2.3-.12-.05-.26-.11-.38.15a2.12 2.12 0 01.35.86c-.44-.57-.27-.29-.73-.75.13.1.32 1 .17 1s-.3-.88-.28-1l-.07 1a2.16 2.16 0 00-.38-1c.09.16-.32.09-.39.2l.22.16c-.45 0 0 1.37-.42 1.45 0-.2-.24-1.16-.48-1.2a8.82 8.82 0 010 2.76l-.15-.24-.18.38a22.08 22.08 0 01.05-3c-.21-.15-.14-.29-.36-.19a.33.33 0 01.07-.45h-.58c.2.52-.23.66-.07 1.09l.4-.73c.19.52.15 1.6-.26 1.63a4.78 4.78 0 01-.29-1.14c0 .2-.24.46-.32.34l.07-.33c-.27-.13-.12.81-.53.39-.1 0-.47-.6-.39-.28a12.42 12.42 0 011 2.88 4.24 4.24 0 01-.83-.69c-.3-.42-.15-1.19-.4-1.56a1.21 1.21 0 010 .42c-.13-.09-.11-.46-.29-.33.14.54-.41.08.06.48-.15.22-.24 0-.46 0a2.29 2.29 0 010 1.46 2 2 0 00-.18-.38c-.41.08-.7-.1-1.07 0-.08-.12-.31-.22-.31-.47 0 .11 0 .3-.12.35-.37-.39.23-.15-.11-.65.08.31-.16.52-.26.77.2.46.4 0 .5-.28a2.34 2.34 0 01-.13 1.88c-.25.26-.27-.39-.29-.28-.62.07-.12 1.31-.75 1-.33-.36-.28-.83-.42-1.13.2-.23.47.15.63.08l-.27-.13c0-.17.17-.33.3-.24-.28-.32-1 .24-1.55 0 0 .16-.13.35 0 .5l.12-.1c.24.29-.11.55.12.65-.11.3-.2.74-.53.64l-.2-.47c.05.14.26.23.29.06 0 .25-.62-.52-.54.15l.3.27c-.11.31-.19.89-.47.82.26.43 0-.08.38.42-.36-.64.61-.16.15-.81.38.59.38.18.78.66-.06-.16-.17-.28.05-.27a.38.38 0 010-.15.91.91 0 01-.18-.21c0-.4.3-.49.35-.71.14 0 0 .2.12.35l.07-.33c.13.34.5.48.29.77l.25-.06c.21.15.44.16.52 0 .14 0 .17-.49.15-.18l.32-.34v.09c.4-.08.61-.84 1.25-.35.1-.13.2-.28.45-.25l.14.29c.13-.16.59.15.56-.19.44.76.87-.08 1.2 0l-.11-.4c.21 0 .36-.22.56-.46l-.13-.34c.13-.36.64.07 1-.08 0 .15-.07.14-.16.08.66.66.67-.85 1.22-.4.06-.15.14-.13.23-.06l.19.14a.94.94 0 00-.17-.15.63.63 0 00.24-.23l.17.36c.14.11 0-.2-.12-.47a1.07 1.07 0 00.06-.27c.28.58.21-.29.54.32 0-.34.45-.41.29-1.09 0 .08.08.11 0 .14.14 0 .28.07.33-.15l.2.46v-.72a.84.84 0 01.34.81c.19-.69.23-.31.37-1l.08.32c.11-.05.16-.52.31-.29.44.51 1.28-.32 2.11 0-.42-.87.43.31.23-.41.1.21.3.28.19.52.43-.37 1 .06 1-.61.18.18.06.33.19.43 0-.06.06-.23.2-.13s0 .19 0 .31c.58-.23.17-.83-.23-1.39.43.19.55.11.36-.29.24.15.57.28.34.44.17 0 1.34-.1.82-.49.19.08.27 0 .25-.1a2.51 2.51 0 00.77-.22h-.2c-.61-.44 0-.21.24-.3h.09c.35-.36-.38-.35 0-.72l-.48-.13c-.54-.2-.42-.26-.26-.35s.38-.25.12-.46l-.21.08c-.21-.12.08-.18.41-.28s.69-.22.7-.34.16.09.25.17c.29-.63-.6-.12-.91-.55.26-.1.81.1.72-.24.09-.09-.25-.32-.55-.54s-.55-.46-.38-.75c-.16.16-.34.3-.57.16a.31.31 0 010-.27c0-.09.07-.19.11-.28s0-.34-.3-.31a.61.61 0 01.14-.1c-.22-.09-.48-.39-.85-.35 1.2-.66-1-.72.15-1.2l-.26-.45h.12c-.05-.34-.37-.33-.7-.32 0-.11.18-.1.25-.12 0-.55 0-.57-.76-.71l.36-.19c-.26 0 .33-.9-.29-1.16a.53.53 0 01.19 0c-.65-.31.55-1.62-.9-1.23l-.47-.19c.07.46-.62.18-.78.45-.15-.14.24-.6.39-.43v.06c.75-.22 0-.63.53-.82-.38-.82-.32-1.79-.61-2.59l-.52.32-.08-.28c.1-.13.4-.28.45-.07.28-.24-.4-.22-.52-.18.07-.47.71-.12.68-.24l-.11-.14v.06c-.28 0-.53.06-.6-.19s.32-.22.31-.28 0-.05 0-.1l-.09-.36-.38.32c-.28-.07-.11-.34-.55 0 .68-.55-.25-1.4-.07-1.64a.62.62 0 01-.56-.57c-.06.1-.54.35-.57.1 1.05-.34.27-.6.93-1.08-.42.36-.38-.59-1 0 0-.22.38-.17.56-.41-.58-.28-.15-1.09-.51-1.59-.14 0-.3.23-.55.19l.55-.57c-.11-.08-.81.22-.43-.17-.1.08-.26.19-.33.13.21-1.35-1.44-2-.67-3.59-.2.26-.26.17-.32.06 0 .1-.33.13-.51.22l.32-.66c-.54.12-.24-.48-.74-.33l.15.11c-.65 0-1.15.79-1.89 1.06.73 0-.72 1 .35.94-.12.14-.27 0-.42.14.35 0 .46 0 .4.3h-.08c.31.54.1.91.16 1.63l.34-.2c0 .16-.1.23-.16.34.61-.07-.13-.4.53-.51-.65.49.39 1-.39 1.44.08.21.39-.24.47 0l-.2.15.31-.07c0 .16-.24.34-.43.43 0-.05-.09-.08-.13-.11-.19.29.3.47.24.57l.06-.26c.44.49.44 1.31 1.12 1.68l.16-.12c.49.3 0 .42.29.82.21 0 .34.12.38.25-.25 0-.3.38-.58.32.52.32.36.12 1.11.16l-.25.19c.3 0 .44-.05.6.15-.32-.09-.37.33-.77.24-.42.75.92.47.11 1.07.87-.1.26-.6.48-.55.21-.21.66-.05.64.13s-.89.68-.71 1.06c0 0-.08 0-.09-.06-.14.23.39.18.14.49.51-.09.07.25.68 0l-.28-.3c.24.14 1 0 .82.51a1.1 1.1 0 01-.45 0c-.14.17.19.14 0 .32-.61.22-.31-.38-.86-.41-.21.21.61.23-.09.39.9-.18 0 .43.8.43l-.37.13c.07 0 .28 0 .3.12h-.52c.48.05-.18.56.12.68-.19-.43.4-.28.58-.57.71.33-.81.7-.4 1.22-.08-.06.1-.39.31-.33a.85.85 0 01-.26.49c.24.37.35-.21.64-.13-.39.31.26.12.47.23l-.37.15c0 .55.81-.19.7.33h-.58l.22.16-.24.38c.41.11.35.21.33.48.24-.15.68-.24.77-.05-.16.23-.38.07-.21.33-.26 0-.57.08-.29-.18-.12 0-.25 0-.38.07-.19.25.1.39.14.49a.18.18 0 010-.15l.67.2a.41.41 0 01-.37.11c.07.07.27.06.35.17-.31.09-.62.22-.83.11l.49.25c-.12.08-.27.35-.4.34-.09.29.79.29.68.68a.25.25 0 01.2 0c0 .29-.22.68.32.83l-.46.41c.22.2.57-.53.94-.19s-.41.29-.52.46c.33 0 1 .06.66.51-.09.02 0-.09-.09-.15zm1.33 2.54c-.1 0-.38 0-.15-.08.48-.06.27.02.16.08zm0 2.18c0-.12 0-.08.2 0-.05.07-.11.07-.22 0zm-12.37 6.87c.17.08.1.04-.02 0zm-.33-.08a.24.24 0 000 .17c0-.1 0-.13.14-.13-.05-.09-.1-.15-.16-.04zm11.23-21.52l-.08.09c-.17-.07-.06-.08.06-.09z" fill="#c4ccd3"></path><path d="M109.29 179.88l.18.16a.41.41 0 00-.18-.16zM107 173.88zM100 182.62a.38.38 0 01.18.15c-.04-.09-.09-.16-.18-.15zM95.3 188.36l.15-.16c-.08.05-.14 0-.2-.07s.11.21.05.23zM93 186.53c0 .06-.06 0-.07.08l.07.17a.13.13 0 000-.25zM94.73 187.16c-.12-.31-.2-.17-.3-.07.12.45.21.26.3.07zM94.4 187.11a.18.18 0 01-.12 0c.05.23.06.07.12 0zM96.31 187.56c-.08-.06.1.42 0 .3.08.43.27-.62 0-.3zM94.29 186.15l.17.37-.03-.34-.14-.03zM95.39 186.11h-.24a.13.13 0 010 .15c.12-.07.29-.04.24-.15zM95.14 186.22a.15.15 0 00-.14.12.37.37 0 00.14-.12zM94.53 185.94l.09.06.15-.02-.24-.04zM97.61 185.48l.19-.18c0-.14-.11-.21-.17-.13s-.09.19-.02.31zM96.6 184.62a1.26 1.26 0 01.19.27l-.15-.49zM97.21 184.3c0-.14.2-.49-.07-.37.02.14-.14.33.07.37zM100.77 183.84l-.06.02.27.8-.21-.82zM103.12 181c-.33-.11.09.51-.22.35 0 .21.25.13.24.32.1-.27.22-.19-.02-.67z" fill="#c4ccd3"></path><path d="M103.14 181.65a1.27 1.27 0 000 .14.33.33 0 000-.14zM104.08 155.47l.09-.23-.21.22.12.01zM103.38 155.39l.47-.24-.48.09s.11.08.01.15zM108.25 178.44H108.56zM108.16 177.18l.01.04.41-.25-.42.21zM106.82 175.54c0 .08.15.13.16.21-.15-.13.39-.46-.16-.21z" fill="#c4ccd3"></path><circle cx="147.24" cy="60.35" r="18.09" fill="#6b3eff"></circle><path style="mix-blend-mode:multiply" fill="none" stroke="#bcc5cd" stroke-linecap="round" stroke-miterlimit="10" stroke-width="4.052" d="M90.48 258.1v71.15h82.16L90.48 258.1z"></path></g></svg> 