<?xml version="1.0" encoding="UTF-8"?> <svg xmlns="http://www.w3.org/2000/svg" viewBox="0 0 510.24 340.16"><defs><linearGradient id="a" x1="318.58" y1="60.32" x2="408.78" y2="60.32" gradientUnits="userSpaceOnUse"><stop offset="0" stop-color="#796eff"></stop><stop offset=".08" stop-color="#8c7cf5"></stop><stop offset=".28" stop-color="#b39be0"></stop><stop offset=".47" stop-color="#d3b3cf"></stop><stop offset=".66" stop-color="#e9c4c4"></stop><stop offset=".84" stop-color="#f6cebc"></stop><stop offset="1" stop-color="#fbd2ba"></stop></linearGradient></defs><g data-name="Layer 13"><path opacity=".58" fill="url(#a)" d="M408.78 21.26v78.12h-90.2l90.2-78.12z"></path><path d="M186.71 97.75a28.66 28.66 0 1128.66-28.66 28.38 28.38 0 01-28.66 28.66zM129.38 149.35v-11.47a28.39 28.39 0 0128.67-28.66h57.32A28.38 28.38 0 01244 137.88v11.47M350.47 267.3a28.67 28.67 0 1128.67-28.66 28.38 28.38 0 01-28.67 28.66zM293.14 318.9v-11.47a28.39 28.39 0 0128.67-28.66h57.33a28.38 28.38 0 0128.66 28.66v11.47" fill="none" stroke="#231b3c" stroke-linecap="round" stroke-miterlimit="10" stroke-width="3.944"></path><path d="M186.74 191.33v58.48A29 29 0 00216 279.06h82.75" fill="none"></path><path d="M298.51 276.64c.27 0 .17-.38.22-.46-.47.1-.21.57-.22.46zM293.94 277.58l.08-.17-.67.42.59-.25zM289.68 277.58c.4.71 1.54-.12 2.3.13l.13.17.34-.58a9.87 9.87 0 01-2.77.28zM287.4 276c.14.28-.49.24.53.09l-.09-.07z" fill="#7e56ff"></path><path d="M287.84 276.06c.45 0-.3-.23 0 0zM285.76 276.22l.59-.25c-.12-.16-.65-.2-.45-.32-.61.14-.48.35-.14.57zM285.2 276.73l.31-.1c-.06-.07-.14-.09-.31.1zM286.16 276.41l-.65.22c.08.11.09.34.29-.08-.05.21.08.01.36-.14zM286.52 276.52c.34.15.77.25.17.49 1.13-.09.97-.59-.17-.49zM289.46 278.31l.44.21.39-.24c-.2.12-.86-.19-.83.03zM282.07 275.85c0 .15.2.4.25.59l.43-.17c-.22-.1-.65-.2-.68-.42zM282.32 276.44l-.66.26c.59.03.69-.09.66-.26zM285.09 277.52l1.08-.54-1.28.55.2-.01zM279.57 275.83l.37-.35-.66.53.29-.18zM277.92 275.89c.27-.29-.38-.49-.09-.67a2.88 2.88 0 00-1.18.53 1.64 1.64 0 011.27.14zM276.07 276.07a3.84 3.84 0 00.58-.32 1.6 1.6 0 00-.58.32zM280.55 276.63a.76.76 0 00-.52-.43l.26.42zM280.3 276.64h-.56zM280.61 276.63h-.06s.04.05.06 0zM283.38 277.14c-.39.23-1.19.49-.41.85.27-.29-.17-.5.41-.85zM280.93 277.16l.7.1c0-.11-.14-.28.05-.39zM280.59 277.3l.34-.14-.26-.03-.08.17zM277.26 276.47a2.08 2.08 0 01-1 .23 6.2 6.2 0 001.2.13c.05-.14.22-.37-.2-.36zM278.74 276.59h-.07s.07.07.07 0zM272.61 276.7l.06.07.01-.07h-.07z" fill="#7e56ff"></path><path d="M277.52 276.91a.65.65 0 00.65-.16 4 4 0 01-.71.08c-.03.06-.03.1.06.08zM275.05 276.27a3.56 3.56 0 00.52.24c-.16-.14-.47-.35-.52-.24zM278.57 276.5c-.05-.11-.04-.07 0 0zM278.57 276.5a1.6 1.6 0 00-.4.25 1.94 1.94 0 00.5-.14.35.35 0 01-.1-.11zM271.5 279.42c.05-.39.84-.75 1.52-.33.67-.3.23-1.59-.35-2.32 0 .18 0 .34-.71.57.24.21 1.52.5.94.86-.91.2-.74-.14-1.18-.35.37.49-1.16.71-1 1.43l.79-.25c.06.11-.23.29-.01.39zM274 276.81h.29a2.56 2.56 0 01-1-.54c-.47.19-.57.34-.6.47l1.39.06z" fill="#7e56ff"></path><path d="M275.53 276.76c-.22.43-.9.61-.49 1.08.83 0 .58-.36 1.08-.55-1.34.11.38-.23-.58-.48a4.07 4.07 0 01.72-.11 7 7 0 01-.69-.19c.06 0 .08.08 0 0a.76.76 0 01-.06.16c-.39-.09-.06-.11.06-.16s0 0 0-.06l-1.34.24a4.82 4.82 0 001.3.07zM282.25 278.91a.12.12 0 010-.1c-.13.05-.16.09 0 .1zM281.7 278.65a.54.54 0 01.5-.18c.27.12 0 .2 0 .34.19-.11.67-.3.07-.51l-.1.06c-.53-.15-1.23-.69-1.13-.74a2.73 2.73 0 00.66 1.03zM278.58 277.82l-1.12.21.57.37v-.22c.6.08.47-.18.55-.36zM272.48 276.49l.15-.46-.65.64.5-.18zM271.03 276.54l.05-.39-.38.23.33.16zM190.87 269.13l-.3-.22a1.11 1.11 0 00.3.22zM192.49 271.12l.19-.09c-.16-.03-.25-.03-.19.09zM235.4 276.58c-.48-.36-1-.93-1-.49l.15.43a1.23 1.23 0 01.85.06zM211 278.72l.12.15.38-.36zM210.37 280.43l-.61-.38a2.5 2.5 0 00.61.38zM184.63 256.58c-.18-.1-.36-.21-.52-.32.14.65.3.31.52.32zM256.17 276.7a3.23 3.23 0 00-1-.26c.47.24.83.62 1 .26zM195 267c-.17-.1-.28-.11-.35 0 .18.11.35.14.35 0z" fill="#7e56ff"></path><path d="M254 276.44l.22.1a3 3 0 011-.1 1.05 1.05 0 00-1.22 0zM184.28 209s0-.07.05-.1-.06.1-.05.1zM188.63 195.31a3.15 3.15 0 010 .56 1.24 1.24 0 000-.56zM265.19 276.35c.31 0 .05-.05 0 0zM266.69 278.06a.23.23 0 00-.12.2.27.27 0 01.12-.2zM250.89 279.12c.11.08.05.07 0 0zM265.66 276.55a1.57 1.57 0 00-.4-.13zM265.59 276.34h.27c.04-.03.01-.07-.27 0zM264.76 276.37a2.65 2.65 0 01.5.05c-.06 0-.08-.05-.07-.07zM185.44 234.22a.25.25 0 010-.07c-.14-.31-.11-.15 0 .07zM227.39 281.06h-.05zM226.29 281.38c.47-.54.74-.47 1.09-.36l-.36-1.24z" fill="#7e56ff"></path><path d="M187.53 264v.94c-1-.64-1.15-1.44-1.29-.46.65-.24 1 .52 1.45 1.22s.92 1.4 1.52 1.09l.05.63c-.07-.15-.15-.12-.22-.27 0 1.3 1.24.15 1.88 1.35.2.44.25.84-.07.67l.9.65c.19.25-.05.35-.23.09.38.39.79.77 1.18 1.15a8.34 8.34 0 011.17.29c.14.43-.24-.05-.29.14a8.26 8.26 0 00.85.4c0 .5-.77.26-1.14-.26-.39 1.58.75.3 1.56 2.11l-.76-.46c-.09.94.58 1.22 1.06 2.23-.07-.34-.71-2.24.24-1.82a1.21 1.21 0 001 .66c-.3.37.19.6.73 1l-.41.49c.68.28.82 0 1.32 0a1.3 1.3 0 01.42 1.43c1 .75-.32-1.12 1-.45a4.18 4.18 0 002.82 1.08c.56.51-.28.3-.12.58l.79-.19c.14.08 0 .2 0 .26.57 0 .3-.55 1.13-.36.45-.58 1.25 1.54 2.5 1.14.19.26-.23.33-.23.59a7.16 7.16 0 002.6-.43l.87.64c-.31-.31-.2-.56.08-.75a5.55 5.55 0 011.17-.58c-.2-.26-.37-.49-.49-.61l1.25-.16c.13.13 0 .33-.26.56l.25-.12c.4.3.13.63-.24.93a5.46 5.46 0 01-.39-.45c-.36.33-.73.71-.73 1.09a1 1 0 01.44-.11c-.1.09-.16.18-.14.24s.19 0 .43-.17l.18.74.12-.26c.54.21 1.09.49 1.65.66 1.3-.68 2.37-1.6 4.19-1.92-.46.52-.1.85-.13 1.47-.49-.65-1.41.28-2.44.08.53.09.4.38.27.48.61-.17 1.2-.34 1.76-.55 0 .51.36.38.8.59-.33-1 1.27-.67 2-1 0 .33-.12.67-1 .59.93.75 1.21-1.16 2.12-.53-.21 0-.32 0-.4.13.48-.3 1.66-.06 1.38.23h-.21c1.37.12 4.16 0 4.37-.83a6.58 6.58 0 01-.26 1.19l2.43-2.85c-.21.73.61 2.46-.52 2.87a1.93 1.93 0 001.41 0c-.22-.11-.55-1.05-.25-1.12.84.81.58.43 1.61 1.12-.34-.15 0-1.29.56-1.26-.08.17 0 1.13-.15 1.25l1.31-1.12c-.33.2-.06.94.24 1.26-.14-.22 1.13 0 1.48-.09l-.56-.26c1.48.17 1.46-1.57 2.93-1.51-.18.23-.44 1.42.3 1.56.34-.57 1.52-2.75 2.81-3.19l.25.32 1-.37a22 22 0 01-3.31 3.38c.55.26.15.38 1 .36.29.3-.45.46-.69.48l1.92.2c-.08-.67 1.48-.67 1.4-1.23l-2.09.69c-.09-.66 1.21-1.89 2.58-1.78.34.27-.26 1.19-.24 1.42a2 2 0 011.43-.28l-.58.36c.76.25 1.24-.89 2.15-.25.32 0 .94.86 1 .46a5.49 5.49 0 01-.27-3.69 10.33 10.33 0 012 1.11c.52.59-.78 1.42-.34 1.93 0-.18.31-.4.43-.48.33.16-.14.57.58.49.12-.68 1.47.05.34-.58.71-.19.75.14 1.58.11-.27-.43.74-1.48 1.44-1.68 0 .17.12.4.2.5 1.44.06 2.22.37 3.56.38.13.16.77.36.5.65a1.36 1.36 0 01.78-.37c.81.59-.92.09-.31.8.05-.4 1.07-.54 1.67-.79-.19-.61-1.37-.12-2 .13 0-.84 1-1.72 2.43-2.11 1.12-.2.49.55.68.43 2.1.14 1.79-1.47 3.53-.86.69.53 0 1.06.19 1.45-.91.2-1.4-.34-2-.32l.76.25a1.61 1.61 0 01-1.23.16c.58.48 3.55.09 5.17.53.29-.18.78-.36.55-.58l-.51.08c-.47-.43 1-.6.31-.8a3.56 3.56 0 012.43-.53l.18.61c0-.18-.63-.37-.9-.18.4-.27 1.48.82 1.92 0l-.68-.43c.69-.3 1.55-.95 2.41-.76-.39-.6-.2.07-.81-.63.53.87-2.2 0-1.35.88-.62-.81-1.08-.34-1.9-1 0 .2.29.38-.43.28a.69.69 0 01-.16.18.9.9 0 01.37.3c-.36.47-1.51.45-1.89.69-.43-.1.18-.23-.06-.45l-.58.36c-.05-.44-1.13-.74-.12-1h-.91a2.38 2.38 0 00-1.72-.16c-.43-.1-1.08.49-.71.14l-1.42.28v-.11c-1.4-.06-2.89.74-4.49-.07a3.91 3.91 0 01-1.75.12l-.15-.38c-.61.13-1.82-.39-2.08 0-.66-1-2.94-.22-4-.41v.51a9.16 9.16 0 00-2.35.31l.06.45c-.79.36-2-.32-3.26-.27.08-.17.4-.13.62 0-1.48-1-3.13.73-4.47 0a.85.85 0 01-.82 0h.09-.14a5.16 5.16 0 00-.47-.24 1.58 1.58 0 00.39.24 4.75 4.75 0 00-1 .18l-.16-.48h-.09c-.38-.17-.31.23-.11.59a1.73 1.73 0 00-.5.29c-.31-.77-1 .26-1.43-.57-.26.41-1.93.31-2.14 1.15 0-.11-.12-.16.08-.17a1.61 1.61 0 00-1.24.05l-.18-.61-.94.82c-.56-.37-.8-.59-.24-1.06-1.36.72-1.1.27-2.26 1l.06-.4c-.42 0-1.08.55-1.33.22-.93-.75-4.59-.1-7-.8.47 1.16-1.1-.52-1.2.38-.14-.27-.44-.44-.08-.66-1.15.21-1.66-.52-2.49.2-.11-.28.27-.39.17-.56-.09.06-.37.22-.47.05s.18-.22.36-.33c-1.11 0-1.33.72-1.53 1.51-.54-.46-.83-.45-1.36 0-.17-.29-.45-.61.29-.59-.43 0-2.34-.93-2.56-.31-.08-.19-.54-.19-.67-.15a18.65 18.65 0 00-1.8-.66l.2.18c-.61.59-.8-.08-1.51-.29l.05-.06c-1.3-1.23-.78-.08-2-1.36l-.14.46c-.65.85-1-1.29-2-1.44l.16.42c-.32 0-.48-.47-.54-1a3.61 3.61 0 00-.24-1.35c0-.14.23 0 .39 0-.7-1.28-.51.4-1.4-.09.06-.37.71-.53.22-1-.06-.4-2.17-.47-2.4-1.57 0 .33-.08.66-.54.45-.57-.5-.59-2.08-1.63-2.06a.28.28 0 01.09-.23c-.49-.31-1.35-1.23-1.92-1.25.52-.67-.06-1.29-.67-1.87s-1.14-1.14-.46-1.48l-.8-1.49h.16a2.09 2.09 0 00-1.25-1.51c0-.28.21-.15.29-.16a3.74 3.74 0 00-1.37-2.85l.45-.24c-.19-.15-.16-.75-.08-1.5a5 5 0 00-.33-2.35.33.33 0 01.23.15 5.58 5.58 0 01.12-2.83c.19-1 .22-1.79-.67-2.13l-.45-1.23c-.13 1.59-.77-.24-1.07.42-.11-.63.54-1.62.63-.85l-.09.12c.94.28.33-2 1-1.94 0-3.14.47-6.19.51-9.13l-.73.34.05-1c.16-.27.56-.36.53.37.42-.38-.34-1.22-.5-1.24.3-1.43.85.56.87.12l-.06-.6-.08.13c-.3-.48-.62-.52-.58-1.4.15-.56.45-.29.48-.5 0 0 .07-.08 0-.34l.06-1.29-.57.52c-.29-.58 0-1.22-.62-.62 1-.88.36-4.82.67-5.35a4.71 4.71 0 01-.36-2.58c-.12.25-.77.39-.69-.45 1.33.31.58-1.55 1.54-2.23-.64.61-.16-2.41-1.06-1.45.11-.7.5 0 .81-.58-.52-1.67.33-3.7.16-5.77-.17 0-.44.32-.7-.13l.87-1.1c-.08-.4-1-.37-.4-1.12-.15.1-.37.26-.42 0 .85-4.07-.7-8.31.9-12.44-.34.56-.37.19-.39-.24-.08.28-.43 0-.66 0l.65-1.73c-.65-.31 0-1.85-.67-2l.11.55c-.74-.73-1.65 1-2.6.91.85.82-1.24 2.15 0 3.49-.19.29-.3-.26-.53-.1.41.34.5.75.31 1.51l-.1-.09c.1 2.13-.3 3-.57 5.44l.47-.18a2 2 0 01-.32.87c.71.59 0-1.45.82-.91-1 .68 0 3.63-1.1 4.09 0 .79.54-.23.54.56l-.3.21.38.2a.85.85 0 01-.68.8 1.82 1.82 0 00-.09-.5c-.34.68.12 1.9 0 2.13l.18-.76c.27 2.16-.11 4.8.49 6.89l.22-.16c.41 1.59-.25 1.27-.06 3l-.05-.06a2.29 2.29 0 01.31 1.29c-.26-.44-.51.84-.79.26.44 1.72.34.85 1.17 2l-.37.27a1.62 1.62 0 01.6 1.29c-.31-.72-.56.56-1-.24-.8 1.83.82 2.72-.36 3.56 1 .84.57-1.59.78-1.12.34-.39.77.7.66 1.27s-1.3 1-1.28 2.47c0-.14-.07-.15-.07-.3-.26.55.35 1.08-.07 1.76.62.38 0 .87.75 1l-.18-1.35c.2.77 1.13 1.49.68 2.75a2.06 2.06 0 01-.48-.73c-.24.37.15.71-.09 1.09-.79-.11-.17-1.64-.77-2.46-.33.39.57 1.55-.28 1.14 1.08.59-.14 1.45.69 2.45l-.47-.07a1.93 1.93 0 01.28.78l-.61-.53c.52.81-.46 1.56-.17 2.33 0-1.62.57-.36.91-1 .63 2-1.23 1.15-1 3.39-.06-.3.29-1.14.5-.66a3 3 0 01-.52 1.25c.1 1.48.48-.23.77.4-.57.51.24.73.42 1.38h-.48c-.31 1.69 1 .45.63 2l-.67-.65.18.8-.55-.17a2.47 2.47 0 01.15 2c.34-.19.87.11.88.86-.28.51-.45-.28-.38.78-.3-.24-.68-.5-.24-1-.15 0-.3-.23-.45-.28-.33.55-.08 1.38-.07 1.77a.87.87 0 01.11-.42c.21.5.47 1.07.72 1.6-.17.27-.33.07-.48-.13a7.5 7.5 0 01.37 1c-.4-.11-.8 0-1-.75l.52 1.57c-.18.12-.4.86-.56.67-.09.93 1 2.07 1 3.26a.85.85 0 01.31.38c.09.54.08 1.08.15 1.63a3.71 3.71 0 00.2.83 3.08 3.08 0 00.53.8l-.4.94c.49.91.48-1.25 1.3.25.62 1-.41.65-.42 1.11.59.43 1.67 1 1.64 2.28-.48-.45-.51-.75-.7-1zm7.83 9.68c-.24-.09-.81-.18-.75-.51.57-.26.55.07.75.47zm17.25 6.25c-.19.13-.45 0-.72-.21a1.18 1.18 0 01.72.17zm49.21-3.15c-.52-.2-.35-.13 0-.04zm1 .21c.11-.07.1-.13.05-.2-.07.12-.3.13-.57.09.12.12.25.18.56.12zm-74.2-46l-.13.2c-.09-.51.03-.39.17-.26z" fill="#7e56ff"></path><path d="M210.45 280.23a.52.52 0 010-.27c-.16.04-.18.15 0 .27zM184.73 256.64h-.09zM246.74 281a.82.82 0 01-.42-.25c-.01.13.09.25.42.25zM268.38 276.13l-.67.13a.94.94 0 01.6.16c-.01-.12-.14-.28.07-.29zM274.16 279.1c.1-.06.21 0 .31-.07v-.22c-.47.02-.73.19-.31.29zM269 277.73c.06.4.48.26.94.19h-.08c.14-.57-.37-.38-.86-.19zM270 277.9a3.09 3.09 0 01.43 0c.1-.23-.13-.05-.43 0zM264.18 276.68c.22.11.14-.51.27-.35.24-.51-1.45.67-.27.35zM269.37 279.06l-.17-.5-.26.4.43.1zM265.68 278.69l.75.14c0-.09.08-.14.2-.17-.46-.02-.96-.12-.95.03zM266.63 278.66a1.18 1.18 0 00.6-.08 2.36 2.36 0 00-.6.08zM268.35 279.2l-.22-.1-.52-.04.74.14zM257.66 278.59l-.81.15c-.09.17.14.27.44.2s.5-.18.37-.35zM260.13 280c-.22-.11-.24-.22-.36-.38v.61zM257.75 280.1c-.08.17-1.18.49-.15.45.08-.17.9-.31.15-.45zM245.48 279.32l.21-.01-.03-1.01-.18 1.02zM234.66 281.74c1 .24.23-.62 1.1-.32.23-.24-.71-.25-.48-.45-.58.25-.89.1-.62.77z" fill="#7e56ff"></path><path d="M235.28 281a1.77 1.77 0 00.3-.16.77.77 0 00-.3.16zM189.17 193.04l.21-.62-.34.4.13.22zM188.42 191.85l.65-.15-.59-.37c.03.14.09.41-.06.52zM196 275.83l.13-.09c0-.2-.1-.3-.34-.52zM189.85 268.82l.09.13.29-.57-.38.44zM185.4 262.29a8 8 0 00.48.92c-.42-.6.18-1.28-.48-.92zM162.74 217.58c-.1 0 .21.33.25.39.07-.19-.33-.46-.25-.39zM163.37 215.67l.1.15-.1-.48v.33zM164.58 214.53c-.61-.4-.36.5-.75.52l-.14-.08.29.5c.2-.31.28-.91.6-.94zM166.28 215c-.23-.16 0-.3-.21.08h.07a.45.45 0 01.14-.08zM166.14 215.14c-.11.13.25.08 0 0zM166.62 214.46v.34c.15.08.32 0 .35.11.08-.26-.07-.35-.35-.45zM166.42 213.94v.16c.05.03.09.03 0-.16zM166.37 214.43v-.33c-.11-.06-.27-.23 0 .13-.12-.16-.02.02 0 .2zM166.2 214.45c-.2 0-.39 0-.39-.31-.26.37.19.69.39.31zM164.13 213.94h-.27l.06.28c-.03-.17.37-.12.21-.28zM167.91 213.74a4.25 4.25 0 00-.48-.37v.25c.13.01.32-.04.48.12zM167.43 213.37V213c-.18.14-.12.26 0 .37zM165.91 213.34l.07.68-.02-.74-.05.06zM168.63 213.08l.13.35-.17-.56.04.21zM169.05 212.59c.12.28.45.25.49.46a1.22 1.22 0 000-.7c-.05.19-.18.27-.49.24z" fill="#7e56ff"></path><path d="M169.45 212a1.61 1.61 0 00.06.39 1.05 1.05 0 00-.06-.39zM167.8 212.76a.71.71 0 00.44.18l-.36-.24zM167.87 212.69l.17-.13zM167.78 212.78s-.03-.05 0 0zM166.65 213.16c-.05-.28 0-.68-.47-.73.12.28.39.31.47.73zM167.33 212.48l-.27.12c.08.08.23.16.26.3zM167.33 212.29v.19l.09-.04-.09-.15zM168.84 212a.47.47 0 01.12-.43 1 1 0 00-.43.23c.08.1.2.32.31.2zM168.34 212.31s-.05-.05 0 0zM170 210.58h-.07l.05.06zM168.46 211.75c-.14 0-.12.14-.08.29a.87.87 0 01.15-.25s-.06-.08-.07-.04zM169.6 211.54a1.67 1.67 0 00-.31 0c.14.03.37.1.31 0zM168.45 212.33c.09.06.06.04 0 0zM168.45 212.33a1.11 1.11 0 00-.07-.29.85.85 0 000 .23zM168.42 208.31c.26.3.29.78-.2.65 0 .39 1 1.21 1.7 1.58a.66.66 0 01-.19-.6c-.22-.09-.77.05-.86-.36.12-.39.31-.1.58-.07-.45-.26-.17-.83-.72-1.3v.4c-.13-.08-.18-.28-.31-.3z" fill="#7e56ff"></path><path d="M169.52 210.86v.11a1.37 1.37 0 01.64.13.72.72 0 00-.15-.5l-.43.33zM169.12 211.32c-.23-.37-.17-.69-.6-.91-.22.24.08.41.07.68.3-.43.06.28.5.19a.73.73 0 01-.13.28 1.15 1.15 0 01.33 0c-.06 0-.08 0 0 0a1.13 1.13 0 01-.1-.13c.17 0 .1.06.1.13v.05l.22-.53c-.15-.08-.24.03-.39.24zM165.75 211.57l.08.06c-.02-.06-.03-.09-.08-.06zM166.08 211.61c0 .07.11.22 0 .27s-.14-.15-.24-.25c0 .14 0 .4.33.39V212a1.54 1.54 0 01.83.22 5.5 5.5 0 00-.92-.61zM167.54 211.37l.17-.45-.42-.11.16.15c-.24.11-.01.27.09.41zM170.17 210.7l.27.37-.26-.64-.01.27zM170.54 210.27l.26.3-.06-.27-.2-.03zM193.61 194.2zM192.93 193.58l-.14.13c.1-.06.21-.1.14-.13zM180.54 200.66c.39.14.93.41.61.11l-.34-.28c-.04.15-.14.18-.27.17zM185.67 192.21l-.08-.1v.53c.06-.14.07-.28.08-.43zM185.28 190.12l.33.07a.42.42 0 00-.33-.07zM197.71 197.18l.4-.23c-.18-.15-.24.05-.4.23zM174.62 206.16a.82.82 0 00.47-.08c-.31-.08-.68-.21-.47.08zM190.33 197.41a.33.33 0 00.25-.13.27.27 0 00-.25.13zM175.42 205.75h-.13a.57.57 0 01-.2.34c.23.02.42-.01.33-.34zM211.25 209.51a.16.16 0 010 .07c.04-.05.03-.06 0-.07zM212.4 216.29a.47.47 0 01-.18-.12c.01.05.06.09.18.12zM172.32 208.84c-.07.1 0 0 0 0zM170.72 208a.56.56 0 00-.11-.19.67.67 0 01.11.19zM174.43 203c-.07 0-.06 0 0 0zM172.05 208.82a.66.66 0 00.2 0 .48.48 0 00-.2 0zM172.21 209h-.1c.03.06.07.08.1 0zM172.42 208.71a.32.32 0 01-.17.1h.07zM203.11 203.92v.08c.2-.09.14-.1 0-.08zM179.71 195.28zM179.8 194.75c.23.51.11.53-.06.55l1 .8z" fill="#7e56ff"></path><path d="M195.36 195.57v-.49c.69-.24.74.1.89-.5-.92 1-1-.67-1.9.32v-.35h.13c.13-.75-.86.54-1.11.07-.06-.2 0-.42.17-.47h-.51c-.07-.09.11-.25.17-.16l-.51-.31a4.31 4.31 0 01-.73.26c0-.24.16-.05.24-.21h-.46c.13-.35.55-.42.69-.24.66-1.21-.43.08-.41-1l.35.08c.35-.71 0-.66 0-1.25-.1.24-.26 1.37-.75 1.39 0-.15-.08-.27-.4-.19.31-.36.09-.4-.1-.53l.43-.47c-.31 0-.51.23-.81.35-.25-.31-.06-.79.1-1.2-.28-.32-.28-.06-.32.21s-.13.52-.48.29a1.48 1.48 0 00-1.44-.73c-.23-.5.18-.36.13-.65l-.43.3c-.06-.07 0-.22 0-.3-.28 0-.19.68-.55.59-.11.37-.21-.05-.39-.53s-.44-1-.65-.68c-.1-.33.05-.47 0-.83-.12 0-.22.06-.22.14a6 6 0 00-.63 1.75 2.84 2.84 0 00-.44-.15c.37.3.13 1.31.06 2l.31.44c-.07.22-.14.44-.19.65a1.65 1.65 0 01-.16-.66v.21c-.2-.13-.29-.56-.3-1a1.84 1.84 0 01.26.29 7.4 7.4 0 00-.16-1.49.8.8 0 01-.11.34.67.67 0 000-.32c0-.06 0 .15-.07.39-.11-.22-.22-.43-.35-.65l.07.33a8.23 8.23 0 00-.86.21c-.19 1.16.09 2.35-.19 3-.23-.5-.56-.64-1-1.09.3.16.32 0 .39-.21s.13-.59.37-.72c-.24.14-.38-.14-.39-.28l-.17.58-.08.28v.22c-.34-.37-.36-.17-.63-.2.78.63.1.82.12 1.22-.24-.23-.43-.52-.14-.69-.78-.29.47 1.17-.23 1 .05-.06.12-.06 0-.2.07.34-.43.49-.55.2v-.06c-.46.28-1.17 1.12-.65 1.78a11.2 11.2 0 01-.74-.93l1.27 2.71c-.44-.58-1.86-1.61-1.83-2.21-.16 0-.36 0-.37.4.13 0 .88.61.84.74a4.8 4.8 0 00-1.23-.38c.2 0 .88.95.71 1.06a11 11 0 01-.81-.93l.4 1.16c-.05-.24-.64-.71-.94-.85.19.12-.33.28-.35.46h.33c-.53.27.68 1.52.22 1.88-.11-.22-.86-1.15-1.16-1 .3.51 1.47 2.4 1.41 3.06l-.29-.17v.54a25.2 25.2 0 01-1.4-3.33c-.33 0-.31-.24-.52 0a.38.38 0 01-.14-.54l-.68.37c.49.47.05.89.45 1.27l.12-1.07c.48.46 1 1.7.5 2-.28-.1-.75-.93-.91-1.08.11.21-.06.67-.21.58l-.08-.41c-.39 0 .26 1-.44.76-.12 0-.86-.37-.6-.07a13.7 13.7 0 012.62 2.59 5.39 5.39 0 01-1.33-.25c-.55-.3-.76-1.24-1.24-1.49a1 1 0 01.21.46c-.2 0-.35-.45-.49-.2.43.53-.46.36.29.51-.06.33-.3.1-.51.34a2.51 2.51 0 01.75 1.61 1.44 1.44 0 00-.4-.31c-.45.34-.88.33-1.26.69-.15-.09-.47-.06-.59-.34 0 .14.14.35 0 .47-.63-.2.2-.31-.46-.66.26.3.07.69.07 1 .48.39.47-.28.47-.62a2.71 2.71 0 01.76 2.18c-.17.45-.51-.26-.48-.12-.69.45.51 1.54-.4 1.57-.56-.2-.74-.76-1-1 .12-.39.63-.13.78-.31h-.38c0-.21 0-.47.23-.45-.49-.19-1.06.89-1.82 1 0 .2 0 .47.24.56l.1-.19c.43.19.14.69.46.66 0 .41.13 1-.31 1l-.48-.39c.13.12.43.09.38-.12.07.31-1-.19-.56.5l.48.13c0 .4.23 1.1-.15 1.19.53.33 0-.1.67.24-.76-.49.64-.56-.23-1 .74.43.54 0 1.25.25-.15-.14-.35-.2-.07-.33a.44.44 0 01-.08-.17.59.59 0 01-.31-.12c-.22-.43.11-.73.06-1 .18-.05.11.21.32.3l-.08-.41c.32.31.83.23.73.69l.44-.13c.33 0 .6-.09.6-.34.19 0 0-.65.1-.3l.21-.58.08.08c.43-.34.3-1.31 1.31-1.16a.66.66 0 01.41-.56l.31.24c.07-.26.77-.21.57-.57.9.57 1-.63 1.41-.78l-.33-.38a1.66 1.66 0 00.44-.86l-.33-.3c0-.48.79-.32 1.11-.69.09.15 0 .2-.16.19 1.11.33.38-1.37 1.26-1.2 0-.21.09-.24.23-.22a2.89 2.89 0 00.29 0 .89.89 0 00-.27-.06.93.93 0 00.17-.41l.37.3c.23 0-.07-.25-.38-.45a1.1 1.1 0 000-.35c.62.48.1-.46.79 0-.21-.36.33-.74-.19-1.41.08.08.15.09.09.15.19-.05.38-.09.32-.37l.47.39-.3-.84a.92.92 0 01.8.7c-.12-.89.12-.5 0-1.32l.26.3c.1-.13-.07-.69.22-.52.78.29 1.36-1.16 2.51-1.29-.94-.71.7.05.06-.58a1.63 1.63 0 01.46.49c0-.37.42.19.14-.59.15.24.16.4.25.54 0-.06-.07-.26 0-.12a1.77 1.77 0 01.13.36 9.71 9.71 0 00-.51-1.84c.26.27.26.2.22-.48a.9.9 0 01.14.73c.1 0 .46.08.42-.76 0 .17.1 0 .13-.13.19.22.19.3.38.39v-.18c.17-.86.2 0 .38 0v.08c.2.91.27-.11.39.83l.17-.48c.23-.49.28-.24.28.07s-.06.66.16.59l.08-.29c.17-.08.06.28-.14.65a3.67 3.67 0 00-.32 1c0 .1-.15.06-.24.07 0 .83.47-.42.88-.25-.16.3-.64.57-.47.81-.07.3 1.34-.28 1.21.46.1-.25.21-.5.49-.52.28.13 0 1.27.7.83a.38.38 0 01-.09.19c.31 0 .79.23 1.19 0-.93 1.37 1.6.33.59 1.47l.59.4-.12.11c.27.37.63.2 1 0 0 .15-.14.2-.2.26.3.66.39.66 1.3.45l-.28.41c.3-.12.21 1.21 1.07 1.2a.43.43 0 01-.2.12c.93 0 .41 2.17 1.8 1h.65c-.38-.51.58-.52.58-.91.26.08.12.82-.16.69v-.1c-.7.63.36.76-.07 1.23.95.77 1.5 1.94 2.34 2.72l.38-.63.27.29c0 .2-.27.52-.46.31-.16.41.58.06.69-.06.23.59-.72.5-.6.62l.21.11v-.09c.34-.1.56-.33.8-.08.06.25-.22.41-.17.49s0 .08.08.1l.34.38.23-.56c.35-.07.33.33.59-.31-.41 1 1.17 1.5 1.12 1.87a.91.91 0 011 .39c0-.15.39-.67.59-.4-1 .93.07.83-.36 1.73.24-.63.81.5 1.12-.43.14.27-.31.39-.36.76.83.05.86 1.2 1.58 1.6.13-.12.2-.41.5-.49l-.25.94c.17 0 .77-.66.59 0 .07-.13.17-.34.28-.31.63 1.68 2.9 1.6 3 3.86.06-.4.19-.33.33-.23 0-.13.28-.32.42-.51l.07.94c.53-.42.58.44 1 0l-.23-.05c.7-.37.78-1.5 1.44-2.19-.79.42.2-1.49-1-.93 0-.22.27-.16.37-.37-.36.22-.54.18-.64-.15l.09-.06c-.69-.47-.69-1-1.22-1.82l-.25.4a.65.65 0 010-.47c-.64.39.39.4-.28.86.43-.9-1.05-1-.47-1.88-.23-.21-.29.47-.52.26l.13-.28-.31.24c-.11-.18.06-.53.22-.72 0 .06.15 0 .2.06 0-.43-.63-.4-.63-.54l.11.33c-.82-.35-1.33-1.31-2.34-1.4l-.1.21c-.74-.1-.21-.51-.85-.82h.05a.53.53 0 01-.58-.1c.3-.08.09-.59.45-.66-.8-.11-.48 0-1.36.37l.17-.35c-.33.15-.46.28-.78.13.42-.06.21-.57.72-.68 0-1.07-1.33-.08-.8-1.19-.92.56.09.84-.19.88-.11.35-.71.4-.81.17s.57-1.24.12-1.6h.14c0-.34-.55 0-.47-.5-.52.36-.24-.26-.79.31l.52.21c-.36 0-1.18.46-1.25-.2a1.43 1.43 0 01.53-.17c0-.27-.31-.07-.26-.35.55-.56.59.3 1.23.06.1-.36-.83 0-.15-.51-.89.66-.34-.47-1.17-.11l.32-.34c-.09 0-.33.1-.41 0l.56-.33c-.58.19-.16-.74-.57-.72.48.4-.27.52-.3 1-1 0 .48-1.22-.33-1.62.14 0 .15.5-.13.54a1.13 1.13 0 010-.71c-.5-.31-.25.42-.63.48.23-.56-.37 0-.68 0l.31-.36c-.29-.67-.78.63-1 0l.63-.33-.35-.08.41-.36c-.52.08-.53-.07-.67-.4-.17.3-.61.63-.84.44 0-.34.39-.27 0-.49.27-.16.59-.38.44.07.11-.1.26-.16.38-.26.05-.39-.36-.41-.47-.51a.3.3 0 01.05.19l-.89.11c0-.2.2-.26.35-.32-.13 0-.34.07-.5 0 .29-.26.55-.57.86-.54l-.71-.05c.08-.15.08-.54.23-.6-.09-.38-1.08.05-1.2-.45a.33.33 0 01-.25 0c-.24-.32-.18-.91-.89-.82l.26-.7c-.38-.12-.31.9-.94.7-.47-.12.27-.56.29-.8-.4.12-1.15.41-1.07-.28.18-.07.19.08.32.12zm-3.6-2.74c.13 0 .46-.14.33.12-.44.34-.32.1-.33-.12zm-7-1.05c0-.21.12-.23.29-.14a.24.24 0 01-.26.14zM173 207.65c.26-.02.16-.03 0 0zm-.44.13a.29.29 0 00.12.16c-.06-.11 0-.18.1-.22-.11-.08-.21-.1-.22.06zm29.39-.59v-.15c.25.01.13.08.05.15z" fill="#7e56ff"></path><path d="M185.32 190.37a.82.82 0 01.11.25c.01-.12-.01-.23-.11-.25zM197.64 197.23a.2.2 0 00.07-.06zM174.29 200.51a.47.47 0 01.29.07.21.21 0 00-.29-.07zM171.57 209.85l.1-.27c-.07.11-.18.06-.28 0 .09.13.23.21.18.27zM167.89 209.26v.13l.16.15c.07-.12.03-.33-.16-.28zM170.3 208.87c-.3-.28-.32-.07-.4.11.37.42.39.15.4-.11zM169.88 209a.23.23 0 01-.12.12c.15.2.09.01.12-.12zM172.37 208.33c-.13 0 .32.41.17.32.29.44-.01-.84-.17-.32zM169.27 208.01l.39.31-.2-.36-.19.05zM170.56 207.28l-.3.1a.19.19 0 01.06.18c.14-.11.35-.18.24-.28zM170.32 207.56a.22.22 0 00-.11.22.5.5 0 00.11-.22zM169.46 207.62l.13.02.17-.12-.3.1zM172.89 205.19l.13-.32c-.1-.15-.23-.16-.27 0s-.01.24.14.32zM171.25 204.87c.14 0 .22.09.37.18l-.42-.46zM171.82 204.13c-.09-.15 0-.68-.27-.37.1.14-.03.47.27.37zM175.82 201.39l-.06.06.71.73-.65-.79zM177.19 196.74c-.44.08.37.51-.09.52.1.24.37 0 .45.2-.01-.34.18-.32-.36-.72zM177.55 197.46a1.37 1.37 0 000 .19.36.36 0 000-.19zM212.71 217.29l.04.31.11-.35-.15.04zM213.55 217l-.38.52.49-.34c-.06.01-.17-.02-.11-.18zM192.11 191.41l-.12.1c-.08.16-.05.2 0 .3zM194.25 193.93l-.03-.05-.3.51.33-.46zM196.81 195.18c-.06-.09-.25-.08-.32-.17.26.08-.13.74.32.17z" fill="#7e56ff"></path><path d="M350.3 156.48V98a29 29 0 00-29.24-29.24h-93.58" fill="none"></path><path d="M227.71 71.16c-.29 0-.19.38-.23.46.52-.09.22-.56.23-.46zM232.54 70.22l-.09.17.71-.42-.62.25zM237.05 70.23c-.43-.71-1.64.11-2.44-.14l-.13-.16-.36.57a11 11 0 012.93-.27zM239.46 71.76c-.15-.27.52-.24-.56-.09l.1.07c.1 0 .23 0 .46.02zM239 71.74c-.48 0 .31.24 0 0zM241.19 71.59l-.62.24c.13.17.69.2.48.32.64-.15.51-.3.14-.56zM241.79 71.07l-.33.1c.06.07.15.1.33-.1z" fill="#7e56ff"></path><path d="M240.77 71.39l.69-.22c-.09-.11-.1-.34-.31.08.05-.25-.08-.01-.38.14zM240.38 71.29c-.35-.16-.8-.26-.17-.5-1.21.1-1.02.59.17.5zM237.28 69.49l-.47-.2-.4.23c.2-.11.9.2.87-.03zM245.09 72c0-.15-.21-.4-.25-.59l-.46.17c.23.06.68.15.71.42zM244.84 71.36l.69-.26c-.62-.03-.73.09-.69.26zM241.9 70.28l-1.14.55 1.36-.55h-.22zM247.74 71.97l-.39.35.69-.53-.3.18zM249.49 71.91c-.29.29.4.49.09.67a3 3 0 001.25-.52 1.82 1.82 0 01-1.34-.15z" fill="#7e56ff"></path><path d="M251.45 71.73a3.14 3.14 0 00-.62.33 2.08 2.08 0 00.62-.33zM246.71 71.17a.76.76 0 00.54.43l-.27-.42zM247 71.17h.59zM246.64 71.17h.07s-.04-.05-.07 0zM243.71 70.67c.41-.24 1.26-.5.44-.86-.29.29.18.5-.44.86zM246.3 70.64l-.73-.1c0 .12.14.28-.06.4z" fill="#7e56ff"></path><path fill="#7e56ff" d="M246.66 70.51l-.36.13.27.04.09-.17zM250.19 71.33a2.38 2.38 0 011.05-.23A6 6 0 00250 71c-.08.11-.26.35.19.33zM248.62 71.21h.07s-.07-.07-.07 0zM255.11 71.11l-.06-.08-.02.07.08.01zM249.91 70.9a.72.72 0 00-.69.15A4.56 4.56 0 01250 71c0-.08 0-.12-.09-.1zM252.52 71.53a3.81 3.81 0 00-.54-.23c.16.13.49.34.54.23zM248.8 71.31h-.05c.11.11.09.06.05 0zM248.8 71.31a2 2 0 00.42-.26 2.74 2.74 0 00-.53.14.63.63 0 01.11.12zM256.28 68.38c-.06.39-.89.76-1.61.34-.7.29-.24 1.59.38 2.31 0-.17 0-.33.74-.56-.25-.22-1.61-.51-1-.86 1-.2.79.14 1.26.34-.4-.49 1.23-.71 1-1.43l-.85.25c.01-.11.31-.29.08-.39zM253.66 71l-.3.05a2.75 2.75 0 011 .53c.49-.19.6-.34.63-.47h-1.47zM252 71c.23-.43.95-.61.51-1.07-.88 0-.61.35-1.14.54 1.42-.11-.4.24.62.48a3.75 3.75 0 01-.77.11 5.33 5.33 0 01.74.2c-.06-.06-.08-.09 0-.06a.44.44 0 01.04-.2c.41.09.06.11-.06.16a.14.14 0 000 .07l1.42-.23a5.23 5.23 0 00-1.36 0zM244.9 68.89a.11.11 0 010 .1c.1-.05.18-.09 0-.1zM245.49 69.15a.61.61 0 01-.53.19c-.29-.13 0-.21 0-.35-.2.11-.71.31-.07.52l.1-.06c.57.15 1.3.68 1.2.74a2.9 2.9 0 00-.7-1.04zM248.79 70l1.19-.21-.61-.37v.22c-.64-.1-.49.17-.58.36zM255.24 71.32l-.15.45.68-.64-.53.19zM256.78 71.27l-.06.39.41-.24-.35-.15zM342.93 75.06l.36.17a1.21 1.21 0 00-.36-.17zM340.91 73.24l-.18.11c.17-.01.27-.04.18-.11zM294.47 71.22c.5.37 1.07.94 1 .49l-.15-.43a1.38 1.38 0 01-.85-.06zM320.28 68.65l-.15-.13-.34.41zM320.63 66.86l.68.29a2.81 2.81 0 00-.68-.29zM351.3 87.27l.56.28c-.23-.66-.34-.29-.56-.28zM272.49 71.11a4.42 4.42 0 001.09.26c-.52-.25-.95-.62-1.09-.26zM339.1 77.75c.2.08.32.07.38 0-.2-.09-.34-.1-.38 0zM274.84 71.36l-.23-.1a3.36 3.36 0 01-1 .11 1.19 1.19 0 001.23-.01zM352.76 137.77a1.17 1.17 0 00-.05.11c.05.01.06-.04.05-.11zM348.41 152.26a3.39 3.39 0 010-.59 1.38 1.38 0 000 .59zM263 71.45c-.32 0-.05 0 0 0zM261.37 69.75a.28.28 0 00.13-.21.36.36 0 01-.13.21zM278.08 68.68c-.08-.08-.08-.06 0 0zM262.46 71.26a2.1 2.1 0 00.42.12 2.71 2.71 0 00-.42-.12zM262.53 71.46h-.29c-.04.03 0 .08.29 0zM263.4 71.43a1.8 1.8 0 01-.52-.05c.06 0 .09.06.07.07zM351.6 111.1a.16.16 0 010 .07c.14.33.11.19 0-.07zM302.94 66.75h.06zM304.11 66.42c-.5.54-.79.47-1.16.36l.38 1.24z"></path><path d="M347.25 79.92L347 79c1.18.5 1.44 1.32 1.4.29-1.18.67-2.22-2.83-3.41-2l-.18-.63c.1.14.18.11.28.24-.3-1.28-1.28 0-2.14-1.16-.29-.41-.42-.79-.06-.67l-1.06-.52c-.23-.24 0-.36.21-.12a12.46 12.46 0 00-1.38-1 7.31 7.31 0 01-1.26-.1c-.23-.41.25 0 .27-.18l-.95-.3c-.11-.52.72-.33 1.22.11 0-.81-.18-.86-.53-.93a2 2 0 01-.63-.22A2.52 2.52 0 01338 71l.88.33c-.09-1-.86-1.1-1.54-2.06.12.36 1.19 2.12.11 1.86a1.5 1.5 0 00-1.12-.53c.23-.43-.31-.59-.95-.85l.33-.55c-.77-.16-.85.15-1.37.23a1.4 1.4 0 01-.71-1.4c-1.23-.55.57 1-1 .62a3.8 3.8 0 00-1.41-.55c-.25 0-.51-.07-.79-.09h-.93c-.69-.4.23-.35 0-.59l-.79.32c-.16 0-.07-.19 0-.26-.6.06-.2.61-1.09.56-.34.59-1.61-1.29-2.83-.68-.24-.22.18-.37.13-.63a7 7 0 00-2.61.89l-1-.47c.76.52-.23 1-1 1.5a7.7 7.7 0 00.63.53l-1.31.34c-.16-.11 0-.33.19-.59a1.67 1.67 0 00-.24.15c-.47-.23-.23-.6.11-1l.47.4a1.77 1.77 0 00.56-1.19 1 1 0 01-.43.17c.08-.1.14-.2.1-.26s-.18.07-.4.24l-.29-.71-.08.28-1.71-.44c-1.22.71-2.29 1.76-4.23 2 .48-.52.1-.85.13-1.46.53.65 1.51-.28 2.51-.15-.52-.07-.41-.36-.27-.46l-1.8.59c0-.5-.38-.38-.85-.58.35 1-1.34.66-2.07 1-.05-.33.13-.67 1-.59-1-.75-1.27 1.17-2.24.53.22 0 .34 0 .43-.13-.51.3-1.76.07-1.46-.22h.21c-1.44-.12-4.4 0-4.61.84a5.89 5.89 0 01.27-1.19l-2.57 2.84c.22-.73-.65-2.45.55-2.86a2.06 2.06 0 00-1.5 0c.24.1.59 1 .27 1.11-.88-.8-.61-.43-1.7-1.12.35.16 0 1.3-.59 1.26.08-.17-.05-1.12.15-1.24l-1.38 1.12c.34-.21.06-1-.25-1.27.14.22-1.2 0-1.57.09l.59.26c-1.56-.17-1.54 1.57-3.09 1.51.19-.23.46-1.42-.33-1.56-.36.58-1.6 2.76-3 3.2l-.26-.33-1 .37a22.46 22.46 0 013.49-3.38c-.58-.25-.16-.38-1-.35-.31-.31.47-.47.73-.48l-2-.2c.09.67-1.56.67-1.48 1.22l2.21-.69c.09.67-1.28 1.9-2.72 1.78-.37-.27.27-1.19.24-1.41-.18.23-1.37.44-1.5.27l.61-.35c-.8-.25-1.31.88-2.28.24-.33 0-1-.86-1.05-.46a5.33 5.33 0 01.29 3.69 11.83 11.83 0 01-2.14-1.1c-.54-.6.83-1.43.36-1.94 0 .18-.32.41-.45.48-.35-.16.15-.57-.61-.48-.13.67-1.55-.06-.36.57-.75.19-.8-.14-1.67-.11.28.44-.79 1.49-1.53 1.68 0-.17-.13-.4-.21-.5-1.52-.06-2.34-.37-3.77-.37-.13-.17-.81-.36-.52-.66a1.5 1.5 0 01-.89.42c-.85-.59 1-.09.33-.79-.06.39-1.14.54-1.76.78.19.61 1.44.12 2.07-.12 0 .83-1.09 1.71-2.58 2.1-1.18.21-.51-.54-.71-.42-2.23-.15-1.9 1.46-3.74.85-.73-.53 0-1.06-.2-1.44 1-.21 1.48.34 2.14.31l-.85-.27a1.78 1.78 0 011.3-.16c-.61-.48-3.75-.09-5.46-.53-.31.18-.83.36-.59.58l.55-.08c.49.43-1 .6-.34.8a4 4 0 01-2.56.54l-.2-.61c0 .17.67.36 1 .17-.43.27-1.57-.82-2 0l.72.42c-.73.31-1.63.95-2.54.76.41.6.21-.07.85.63-.55-.87 2.33 0 1.43-.88.66.82 1.14.35 2 1 0-.2-.31-.38.45-.28a1.45 1.45 0 01.17-.18.81.81 0 01-.38-.3c.37-.46 1.59-.45 2-.69.45.1-.19.23.05.45l.61-.36c.07.45 1.21.74.14 1h1a2.72 2.72 0 001.82.17c.45.09 1.14-.5.75-.15l1.5-.27v.11c1.49 0 3.06-.74 4.75.06a4.37 4.37 0 011.85-.12l.16.39c.65-.14 1.93.38 2.21 0 .69 1 3.11.23 4.23.41l.05-.5a10.74 10.74 0 002.48-.32l-.06-.45c.83-.36 2.14.32 3.45.28-.09.17-.42.12-.66 0 1.57 1 3.31-.73 4.74 0a1 1 0 01.86 0h-.09.06c.16.08.32.17.5.24a1.69 1.69 0 00-.42-.24 5.29 5.29 0 001.1-.17l.17.47h.09c.4.18.32-.23.11-.59a2 2 0 00.54-.28c.32.77 1.07-.26 1.51.56.27-.4 2-.3 2.26-1.15 0 .11.13.16-.09.17a1.82 1.82 0 001.32 0l.19.6 1-.81c.6.37.85.58.25 1 1.44-.72 1.17-.27 2.4-1l-.06.39c.44 0 1.14-.54 1.4-.22 1 .75 4.85.11 7.37.8-.49-1.16 1.17.52 1.27-.38.15.27.5.43.09.67 1.28-.27 1.93.43 2.82-.32.14.27-.28.4-.15.56.11-.06.41-.24.54-.08s-.18.23-.39.35c1.31 0 1.45-.89 1.54-1.68.67.38 1 .32 1.48-.2.23.26.62.54-.2.63.49 0 2.64.5 2.75-.14.12.17.6.06.73 0a14 14 0 002 .33l-.25-.14c.5-.68.84-.09 1.61 0v.07c1.6 1 .85-.1 2.36 1l.05-.49c.49-.91 1.3 1.1 2.38 1.09-.08-.14-.16-.26-.24-.38.68-.12.86 1.94 1.27 2.26.07.13-.23.05-.4 0 1 1.14.44-.49 1.46-.15 0 .4-.61.63-.05 1 .08.21.65.23 1.27.34a1.73 1.73 0 011.49.91c0-.34-.05-.68.47-.54a4.1 4.1 0 01.91 1.12c.3.44.6.83 1.13.75a.26.26 0 010 .24c.29.12.7.37 1.11.59a2.26 2.26 0 001.06.44c-.43.78.36 1.27 1 1.8s1.34 1.05.71 1.48a11.47 11.47 0 011.05 1.46h-.15a2.39 2.39 0 001.52 1.39c0 .29-.18.18-.26.2a4.13 4.13 0 001.73 3.16l-.41.31c.19.13.23.78.33 1.54a4.7 4.7 0 00.62 2.44.39.39 0 01-.26-.13 5.78 5.78 0 01.23 3c-.12 1-.14 1.75.78 2.06.16.41.35.81.49 1.26.1-1.66.79.24 1.07-.44.11.66-.54 1.71-.63.9l.09-.13c-.94-.3-.33 2.09-1 2 .05 3.31-.47 6.55-.51 9.66l.73-.36-.05 1.08c-.17.29-.56.38-.53-.39-.42.41.34 1.3.5 1.32-.3 1.51-.85-.59-.87-.13l.06.63.08-.14c.3.51.61.56.58 1.49-.15.58-.45.3-.48.53-.05 0-.07.08 0 .35l-.06 1.37.57-.55c.29.61 0 1.29.62.66-1 .92-.36 5.09-.67 5.66a5.2 5.2 0 01.36 2.72c.12-.26.77-.41.69.48-1.33-.32-.58 1.64-1.54 2.36.64-.64.16 2.54 1.06 1.53-.11.75-.5.05-.81.61.52 1.78-.34 3.92-.16 6.11.17 0 .44-.33.7.14l-.87 1.16c.08.43 1 .4.4 1.19.15-.11.37-.28.42 0-.85 4.3.7 8.79-.9 13.15.34-.59.37-.2.39.26.08-.3.43 0 .66-.06l-.65 1.83c.65.34 0 2 .67 2.15L349 155c.74.77 1.64-1.07 2.6-1-.85-.86 1.24-2.27 0-3.69.19-.31.3.27.52.1-.4-.36-.49-.79-.31-1.59l.11.09c-.1-2.25.3-3.22.57-5.75l-.47.18a2.16 2.16 0 01.32-.91c-.71-.62 0 1.53-.82 1 .95-.72 0-3.84 1.1-4.33 0-.83-.55.25-.54-.59l.3-.22-.38-.21a.89.89 0 01.68-.85 2 2 0 00.09.53c.34-.72-.12-2 0-2.26l-.18.81c-.27-2.29.11-5.08-.49-7.28l-.22.17c-.41-1.69.24-1.35.05-3.21l.06.07a2.44 2.44 0 01-.31-1.37c.26.47.51-.88.79-.27-.44-1.82-.34-.9-1.17-2.11l.37-.28a1.76 1.76 0 01-.6-1.37c.31.76.56-.58 1 .26.8-1.94-.82-2.88.36-3.77-1-.89-.57 1.68-.78 1.18-.34.42-.77-.73-.66-1.34s1.3-1 1.28-2.61c0 .15.07.16.07.32.26-.58-.35-1.14.07-1.86-.62-.4 0-.93-.75-1l.18 1.43c-.21-.81-1.13-1.57-.68-2.91a2.08 2.08 0 01.48.77c.24-.39-.15-.75.09-1.15.79.11.17 1.74.77 2.6.33-.42-.57-1.64.28-1.2-1.08-.63.14-1.54-.69-2.59l.47.07a2.13 2.13 0 01-.28-.82l.61.55c-.52-.85.45-1.64.17-2.46 0 1.71-.57.38-.91 1.11-.63-2.12 1.23-1.22 1-3.59.06.32-.29 1.2-.51.7a3.36 3.36 0 01.53-1.32c-.1-1.57-.49.24-.77-.43.57-.53-.24-.77-.42-1.46h.48c.3-1.79-1-.48-.63-2.09l.66.68-.17-.84.55.18a2.83 2.83 0 01-.29-1.06 9 9 0 01.09-1.12c-.33.24-.88-.09-.93-.92.25-.59.47.29.34-.89.31.24.7.51.29 1.07.16 0 .31.25.47.3a3.8 3.8 0 00-.06-2 1 1 0 01-.06.48c-.28-.56-.6-1.11-.9-1.65.14-.3.31-.1.48.09a8.76 8.76 0 01-.47-1.06c.4.07.79 0 1.09.68-.24-.54-.44-1.08-.7-1.59.14-.15.24-1 .44-.77 0-1-1.25-2.07-1.43-3.31-.09 0-.2-.13-.34-.36-.17-.56-.19-1.14-.38-1.69a3.81 3.81 0 00-1-1.61l.28-1c-.66-.89-.26 1.33-1.37-.1-.84-1 .27-.71.2-1.19-.63-.38-1.77-.91-2-2.15.28.14.38.44.63.7zm-9.78-8.8c.27 0 .87 0 .88.39-.54.31-.59-.03-.88-.39zm-19-3.39c.18-.16.45-.08.76.1a1.32 1.32 0 01-.76-.1zm-52 3.33c.6.17.42.09.05 0zm-1.1-.21c-.11.07-.11.14-.06.2.08-.12.33-.12.61-.09-.03-.13-.17-.21-.5-.11zm83 43.73l.12-.21c.15.48.03.35-.11.21z" fill="#7e56ff"></path><path d="M320.59 67.07a.64.64 0 01.1.26c.09-.08.09-.17-.1-.26zM351.19 87.22a.12.12 0 00.1 0zM282.47 66.79a.92.92 0 01.44.25c.01-.12-.09-.22-.44-.25zM259.58 71.67l.71-.13a1.08 1.08 0 01-.64-.15c.02.11.15.27-.07.28zM253.46 68.7c-.1.06-.22 0-.32.07v.22c.47.01.77-.19.32-.29zM258.93 70.08c-.06-.41-.5-.27-1-.19a.11.11 0 01.08 0c-.13.56.4.37.92.19zM257.82 69.9a1.71 1.71 0 01-.45 0c-.06.23.18.1.45 0zM264 71.12c-.23-.1-.15.52-.28.35-.24.53 1.58-.62.28-.35zM258.53 68.75l.18.5.27-.41-.45-.09zM262.43 69.11l-.79-.13c0 .08-.09.13-.21.17.49.01 1.02.11 1-.04zM261.43 69.15a1.37 1.37 0 00-.64.08 3.28 3.28 0 00.64-.08zM259.61 68.6l.23.1.56.04-.79-.14zM270.92 69.21l.86-.14c.09-.17-.15-.28-.47-.21s-.52.19-.39.35zM268.31 67.85c.23.1.25.21.38.38v-.62zM270.82 67.7c.09-.17 1.25-.49.16-.45-.08.17-.98.31-.16.45zM283.81 68.48l-.22.01.03 1.01.19-1.02zM295.25 66.06c-1-.24-.24.63-1.17.32-.24.24.76.25.51.46.62-.25.94-.11.66-.78zM294.59 66.84l-.31.15a1 1 0 00.31-.15zM347.87 154.67l-.22.65.35-.42-.13-.23zM348.62 155.93l-.65.15.58.4c-.02-.15-.08-.48.07-.55zM336.37 69l-.12.12c0 .2.18.27.46.46-.1-.22-.23-.39-.34-.58zM344.03 75.22l-.1-.13-.2.64.3-.51zM349.64 81.41c-.15-.31-.47-.59-.63-.89.48.59.05 1.33.63.89zM374.3 130.22c.1-.05-.21-.32-.25-.39-.05.17.33.46.25.39zM373.67 132.13l-.1-.14.1.48v-.34zM372.46 133.27c.6.41.36-.5.75-.52l.14.08-.3-.5c-.19.31-.27.91-.59.94zM370.76 132.77c.23.16 0 .31.21-.08h-.07a.46.46 0 01-.14.08zM370.9 132.67c.11-.14-.25-.09 0 0zM370.42 133.34V133c-.15-.08-.32 0-.35-.1-.07.26.07.34.35.44zM370.62 133.87v-.16c-.05-.04-.09-.03 0 .16zM370.67 133.37v.34c.11.06.27.22 0-.14.12.17.02-.01 0-.2zM370.84 133.35c.2 0 .39 0 .39.32.25-.38-.14-.67-.39-.32zM372.91 133.86h.26l-.05-.27c.03.16-.38.12-.21.27zM369.13 134.07a4.27 4.27 0 00.48.36v-.24c-.13-.02-.32.03-.48-.12zM369.61 134.43v.36c.18-.13.12-.25 0-.36zM371.13 134.46l-.07-.68.02.74.05-.06zM368.41 134.72l-.14-.35.18.56-.04-.21zM368 135.21c-.12-.28-.45-.25-.49-.46a1.14 1.14 0 000 .7c.04-.19.17-.27.49-.24zM367.59 135.84a1.61 1.61 0 00-.06-.39.88.88 0 00.06.39zM369.24 135c-.08 0-.27-.2-.44-.17l.36.23zM369.17 135.11l-.17.14zM369.26 135s.03.07 0 0zM370.39 134.65c.05.27 0 .67.47.72-.12-.28-.39-.31-.47-.72zM369.71 135.32l.27-.11c-.09-.08-.23-.17-.26-.3zM369.71 135.51v-.19l-.09.05.09.14zM368.2 135.81a.5.5 0 01-.12.43.9.9 0 00.43-.23c-.08-.11-.2-.33-.31-.2zM368.7 135.5s.05.05 0 0zM367.05 137.22h.07-.05zM368.58 136.05c.14 0 .12-.14.07-.28a.72.72 0 01-.14.24c.03.05.06.08.07.04zM367.44 136.26h.31c-.14-.03-.37-.1-.31 0zM368.59 135.47c-.09-.06-.06-.03 0 0zM368.59 135.47a1.77 1.77 0 00.06.3.6.6 0 00.05-.24.3.3 0 01-.11-.06zM368.62 139.49c-.26-.3-.29-.77.19-.65 0-.39-1-1.21-1.69-1.58a.67.67 0 01.19.6c.21.09.77-.05.86.37-.12.39-.31.1-.58.07.45.25.17.82.72 1.29l.05-.4c.08.08.13.29.26.3zM367.52 136.94v-.11c-.14 0-.31 0-.64-.12a.76.76 0 00.15.5l.43-.34z" fill="#7e56ff"></path><path d="M367.92 136.49c.23.37.17.68.6.9.22-.24-.08-.41-.07-.68-.3.44-.06-.27-.5-.19a.91.91 0 01.13-.28 1.14 1.14 0 01-.33 0c.05 0 .08 0 0 0l.1.14c-.17 0-.1-.07-.1-.14l-.22.53c.15.03.24-.08.39-.28zM371.29 136.23s-.05 0-.08-.06.03.1.08.06z" fill="#7e56ff"></path><path d="M371 136.19c0-.07-.11-.21 0-.26s.14.14.24.24c0-.13 0-.4-.33-.39v.07a1.44 1.44 0 01-.83-.23 4.42 4.42 0 00.92.57zM369.5 136.43l-.17.45.42.12-.16-.16c.24-.1.01-.27-.09-.41zM366.87 137.1l-.27-.36.26.63.01-.27zM366.5 137.53l-.26-.3.06.28.2.02zM343.43 153.6h-.17a.48.48 0 00.17 0zM344.11 154.23l.14-.13c-.1.05-.17.1-.14.13zM356.5 147.14c-.39-.14-.94-.41-.61-.1l.33.27a.23.23 0 01.28-.17zM351.36 155.59l.09.11c0-.19 0-.37-.05-.53-.01.13-.02.27-.04.42zM351.76 157.68l-.33-.07a.42.42 0 00.33.07zM339.33 150.62l-.4.23c.18.15.24-.08.4-.23zM362.42 141.64a.81.81 0 00-.47.09c.31.04.68.2.47-.09zM346.71 150.4a.32.32 0 00-.25.12.26.26 0 00.25-.12zM361.62 142.05h.13a.54.54 0 01.2-.33c-.23-.03-.42 0-.33.33zM325.79 138.29v-.06c0-.06-.03.05 0 .06zM324.64 131.51a.56.56 0 01.18.12s-.06-.09-.18-.12zM364.72 139c.07-.1 0 0 0 0zM366.32 139.8a.46.46 0 00.11.18.65.65 0 01-.11-.18zM362.61 144.81c.07.05.06.04 0 0zM365 139a.44.44 0 00-.2 0zM364.83 138.85h.1c-.03-.1-.08-.13-.1 0zM364.62 139.1a.27.27 0 01.17-.1h-.07zM333.93 143.89c-.2 0-.14.02 0 0zM357.33 152.53zM357.24 153.06c-.24-.52-.11-.54.06-.56l-1-.8z" fill="#7e56ff"></path><path d="M341.68 152.23v.5c-.69.23-.74-.1-.89.49.92-1 1 .67 1.89-.32v.35c0-.05-.1 0-.13 0-.13.74.86-.55 1.11-.07.06.19 0 .42-.17.46h.51c.07.1-.11.25-.18.16l.52.31a3.66 3.66 0 01.73-.27c0 .24-.16.06-.24.21h.46c-.13.35-.55.43-.69.24-.66 1.21.43-.08.41.95l-.35-.08c-.35.71 0 .66 0 1.25.1-.24.26-1.36.75-1.38 0 .14.08.26.4.18-.31.37-.09.4.1.53l-.43.47c.31 0 .51-.23.81-.34.25.3.06.78-.1 1.2.28.31.28.05.32-.21s.13-.53.48-.3c.32.61.81.69 1.44.73.23.5-.18.36-.13.65a4.15 4.15 0 00.43-.3c.06.07 0 .22 0 .3.27 0 .19-.68.55-.59.11-.37.21.06.39.54s.44 1 .65.67c.1.33-.05.48 0 .83.12 0 .21 0 .22-.13a6.09 6.09 0 00.63-1.76 2.84 2.84 0 00.44.15c-.37-.3-.13-1.31-.07-2l-.3-.43c.07-.23.13-.45.19-.66a1.54 1.54 0 01.15.67 1.7 1.7 0 000-.22 1.4 1.4 0 01.3 1 2.33 2.33 0 01-.26-.28 7.37 7.37 0 00.16 1.48 1 1 0 01.1-.34.75.75 0 00.05.32c0 .06 0-.14.07-.39.11.22.22.44.34.65l-.06-.32c.27-.06.55-.13.86-.22.18-1.16-.09-2.35.19-3 .23.5.56.64 1 1.1-.3-.16-.32-.05-.39.2s-.13.59-.37.72c.24-.13.38.14.38.28l.18-.58.08-.28v-.22c.33.37.36.17.63.21-.78-.63-.1-.82-.12-1.23.24.23.43.52.14.69.78.29-.47-1.17.23-.95-.05.06-.12 0 0 .2a.3.3 0 01.55-.21l-.05.06c.46-.28 1.17-1.11.65-1.78.08.08.65.79.74.93l-1.27-2.71c.44.58 1.86 1.61 1.83 2.21.16 0 .36 0 .37-.4-.13 0-.88-.61-.84-.74a4.34 4.34 0 001.23.38c-.2 0-.88-1-.71-1.06a11 11 0 01.81.94l-.4-1.16c0 .23.64.7.94.85-.19-.12.33-.29.35-.46h-.33c.53-.28-.68-1.53-.22-1.88.11.21.85 1.14 1.16 1-.3-.5-1.47-2.39-1.41-3.06l.29.17v-.54a25.2 25.2 0 011.4 3.33c.33 0 .31.24.52 0a.37.37 0 01.14.53l.68-.37c-.49-.46 0-.88-.46-1.26l-.11 1.06c-.48-.46-1-1.7-.5-2 .28.1.75.93.91 1.08-.11-.21.06-.66.21-.58l.08.42c.39 0-.26-1 .44-.76.12-.06.86.37.6.07a14.1 14.1 0 01-2.63-2.6 5.5 5.5 0 011.34.26c.55.29.76 1.24 1.24 1.49a1.12 1.12 0 01-.21-.46c.2 0 .35.44.49.19-.43-.52.46-.35-.3-.51.07-.33.31-.1.52-.34a2.51 2.51 0 01-.75-1.61 1.44 1.44 0 00.4.31c.45-.34.88-.33 1.26-.68.15.08.47.05.59.34 0-.14-.14-.36 0-.48.63.21-.2.31.46.66-.26-.3-.07-.68-.08-1-.47-.39-.46.28-.46.62a2.71 2.71 0 01-.76-2.18c.17-.45.51.27.48.13.69-.46-.51-1.54.4-1.57.56.2.74.76 1 1-.12.4-.63.14-.79.32h.39c0 .2 0 .46-.23.44.49.19 1.06-.89 1.82-1 0-.21 0-.48-.25-.57l-.09.19c-.43-.18-.14-.69-.46-.66 0-.4-.13-.95.31-1l.48.39c-.13-.12-.43-.09-.38.12-.07-.3 1 .2.56-.5l-.48-.12c0-.41-.23-1.11.15-1.2-.53-.33 0 .11-.67-.24.76.49-.64.56.23 1-.74-.42-.54 0-1.25-.24.14.14.35.2.07.32a.51.51 0 01.08.17.91.91 0 01.31.12c.22.43-.11.73-.06 1-.19 0-.11-.22-.32-.31l.08.41c-.32-.3-.83-.23-.73-.69l-.27.23c-.32 0-.59.09-.59.35-.19 0 0 .64-.1.29l-.21.58-.08-.07c-.43.33-.3 1.31-1.31 1.15-.06.21-.1.44-.41.56l-.31-.23c-.07.26-.78.21-.57.57-.9-.58-1 .62-1.41.78l.33.37a1.7 1.7 0 00-.44.86l.32.31c0 .47-.78.31-1.1.68-.09-.15 0-.2.16-.19-1.11-.32-.38 1.38-1.26 1.21 0 .2-.09.23-.23.21l-.29-.05a1 1 0 00.27.07.79.79 0 00-.17.4l-.38-.3c-.23 0 .07.25.38.46a1.08 1.08 0 00.05.34c-.62-.48-.1.46-.79 0 .21.36-.33.73.19 1.4-.08-.08-.15-.08-.09-.14-.19 0-.38.09-.32.36l-.47-.39.3.84a.91.91 0 01-.8-.69c.12.88-.12.49 0 1.32l-.26-.3c-.11.12.07.68-.22.51-.78-.29-1.37 1.16-2.51 1.3.94.7-.7-.06-.06.57a1.61 1.61 0 01-.46-.48c0 .36-.42-.2-.14.58-.15-.24-.16-.4-.26-.54 0 .06.08.26 0 .12a1.58 1.58 0 01-.13-.36 9.52 9.52 0 00.51 1.84c-.26-.27-.27-.19-.22.49a.93.93 0 01-.14-.74c-.1.05-.46-.08-.42.76 0-.17-.1 0-.13.13-.19-.22-.19-.3-.38-.38v.17c-.17.87-.2.05-.38 0v-.08c-.2-.91-.27.12-.39-.82l-.17.48c-.23.48-.28.24-.28-.07s.06-.67-.16-.6l-.08.29c-.17.09-.06-.28.14-.65a3.11 3.11 0 00.31-1c0-.1.15-.06.25-.07 0-.82-.47.43-.88.26.16-.31.64-.58.47-.82.07-.29-1.34.29-1.21-.45-.11.25-.21.5-.49.52-.28-.13 0-1.28-.7-.84a.38.38 0 01.09-.19c-.31 0-.79-.22-1.19 0 .93-1.38-1.6-.34-.59-1.48l-.59-.4.12-.1c-.27-.38-.63-.21-1 0 0-.14.14-.2.2-.25-.3-.67-.39-.66-1.3-.46l.28-.41c-.3.12-.21-1.2-1.07-1.2a.57.57 0 01.19-.12c-.92 0-.41-2.17-1.79-1h-.65c.38.51-.58.53-.58.92-.26-.08-.12-.82.16-.7v.1c.7-.63-.36-.75.07-1.22-.95-.77-1.5-1.94-2.34-2.73l-.38.64-.27-.3c0-.19.27-.52.46-.31.16-.41-.58-.05-.69.06-.23-.59.72-.49.6-.62l-.21-.11v.1c-.33.1-.55.32-.79.07-.06-.25.22-.41.17-.49s0-.07-.08-.1l-.34-.38-.23.57c-.35.06-.33-.34-.59.31.41-1-1.17-1.51-1.12-1.88a.89.89 0 01-1-.39c0 .15-.39.68-.59.4 1-.92-.07-.83.36-1.73-.24.64-.81-.49-1.12.43-.14-.26.31-.39.36-.76-.83 0-.86-1.2-1.58-1.6-.13.12-.2.41-.5.49l.25-.93c-.17 0-.77.66-.59 0-.07.14-.17.34-.28.32-.63-1.69-2.9-1.61-3.05-3.87-.06.4-.19.33-.33.23 0 .13-.28.32-.42.51l-.07-.93c-.53.41-.58-.45-1 0l.23.06c-.7.37-.79 1.5-1.44 2.19.79-.43-.2 1.49 1 .92 0 .22-.28.17-.37.37.36-.22.54-.18.64.16l-.09.05c.69.47.69 1 1.22 1.82l.25-.4a.65.65 0 010 .47c.64-.38-.4-.4.28-.85-.43.89 1 .94.47 1.88.23.2.29-.47.52-.27l-.13.28.31-.24c.11.18-.06.53-.22.72 0 0-.15 0-.2-.06 0 .44.63.4.62.55l-.1-.34c.82.35 1.33 1.32 2.34 1.4l.1-.21c.74.1.21.51.85.82h-.05a.55.55 0 01.58.1c-.3.09-.09.6-.45.67.8.11.48-.05 1.35-.37l-.16.34c.33-.15.46-.28.78-.12-.42 0-.21.56-.72.67 0 1.08 1.33.09.8 1.19.92-.55-.09-.83.19-.88.11-.35.71-.39.81-.17s-.57 1.24-.12 1.6h-.14c0 .33.55 0 .47.5.52-.37.24.25.79-.31l-.52-.21c.36 0 1.18-.47 1.25.19a1.66 1.66 0 01-.53.18c-.05.26.31.06.26.34-.55.56-.59-.29-1.23 0-.1.35.83 0 .15.5.89-.66.34.48 1.17.11l-.33.34c.1 0 .34-.1.42 0l-.56.33c.58-.19.16.74.57.73-.48-.41.27-.53.3-1 1 0-.48 1.22.33 1.63-.14 0-.15-.51.13-.55a1.16 1.16 0 010 .72c.5.3.25-.43.63-.48-.23.56.37 0 .68 0l-.32.36c.3.66.79-.64 1 0l-.62.34.34.07-.4.37c.52-.09.53.06.67.39.17-.3.61-.62.84-.44 0 .34-.39.27 0 .49-.27.16-.59.38-.44-.07-.11.1-.26.16-.38.27-.05.39.36.41.47.5a.29.29 0 010-.19l.89-.1c-.05.2-.2.25-.35.31.13 0 .34-.07.5 0-.29.26-.55.57-.86.54h.71c-.08.16-.08.55-.23.61.09.38 1.08-.06 1.2.44a.33.33 0 01.25-.05c.24.33.18.92.89.82l-.26.7c.38.12.31-.9.94-.69.47.11-.27.55-.29.8.4-.13 1.15-.42 1.07.27-.37.09-.38-.05-.51-.1zm3.6 2.74c-.13 0-.47.14-.33-.11.44-.35.32-.1.33.14zm7 1.05c0 .21-.12.23-.29.14a.24.24 0 01.26-.16zM364 140.15c-.22.03-.12.03 0 0zm.44-.13a.33.33 0 00-.12-.16c.06.11 0 .18-.1.23.15.07.25.1.26-.09zm-29.39.6v.14c-.21-.01-.05-.07.04-.14z" fill="#7e56ff"></path><path d="M351.72 157.44a.89.89 0 01-.11-.26c-.01.12.01.23.11.26zM339.4 150.58l-.07.06zM362.74 147.3a.64.64 0 01-.28-.07.21.21 0 00.28.07zM365.47 138l-.1.27c.07-.1.18-.06.28-.05-.09-.12-.23-.22-.18-.22zM369.15 138.54c0-.07.05-.06 0-.13l-.17-.15c-.06.12.02.33.17.28zM366.74 138.94c.3.28.32.06.4-.12-.38-.42-.39-.15-.4.12zM367.16 138.79a.28.28 0 01.11-.13c-.14-.18-.08.02-.11.13zM364.67 139.48c.13 0-.32-.41-.17-.33-.29-.44.01.85.17.33zM367.77 139.8l-.39-.32.2.36.19-.04zM366.48 140.52l.3-.1a.17.17 0 01-.06-.17c-.14.11-.35.17-.24.27zM366.72 140.25a.23.23 0 00.11-.22.41.41 0 00-.11.22zM367.58 140.18l-.13-.02-.18.12.31-.1zM364.15 142.61l-.13.32c.09.15.23.16.27 0s.01-.23-.14-.32zM365.79 142.93c-.14 0-.22-.09-.37-.17l.42.45zM365.22 143.68c.09.14 0 .67.27.36-.1-.14.03-.46-.27-.36zM361.22 146.41l.06-.06-.71-.72.65.78zM359.85 151.07c.44-.09-.37-.51.09-.53-.1-.23-.37 0-.45-.2.01.34-.18.32.36.73zM359.49 150.34a1.76 1.76 0 000-.19.34.34 0 000 .19zM324.33 130.52l-.04-.32-.11.36.15-.04zM323.49 130.78l.38-.53-.5.35c.06.01.18.04.12.18zM344.93 156.39l.12-.1c.08-.15.05-.2 0-.29zM342.78 153.87l.04.05.3-.51-.34.46zM340.23 152.62c.06.09.25.08.32.18-.26-.09.13-.75-.32-.18z" fill="#7e56ff"></path><path d="M296.47 194.59c.06.7.08 1.42.08 2.15A27 27 0 11286 175.27" style="mix-blend-mode:multiply" fill="none" stroke="#bcc5cd" stroke-miterlimit="10" stroke-width="3.677"></path><path d="M255.11 192.88l13.05 14.22L302 173.19" fill="#fff" stroke="#6b3eff" stroke-miterlimit="10" stroke-width="4.064"></path><path style="mix-blend-mode:multiply" fill="none" stroke="#bcc5cd" stroke-linecap="round" stroke-miterlimit="10" stroke-width="3.944" d="M208.53 242.32v55.65H101.45v-55.65z"></path><path style="mix-blend-mode:multiply" fill="#bcc5cd" d="M111.67 209.94h33.11v51.62h-33.11z"></path></g></svg> 