<?xml version="1.0" encoding="UTF-8"?> <svg xmlns="http://www.w3.org/2000/svg" viewBox="0 0 510.24 340.16"><defs><linearGradient id="a" x1="410.34" y1="265.53" x2="462.97" y2="265.53" gradientUnits="userSpaceOnUse"><stop offset="0" stop-color="#796eff"></stop><stop offset=".08" stop-color="#8c7cf5"></stop><stop offset=".28" stop-color="#b39be0"></stop><stop offset=".47" stop-color="#d3b3cf"></stop><stop offset=".66" stop-color="#e9c4c4"></stop><stop offset=".84" stop-color="#f6cebc"></stop><stop offset="1" stop-color="#fbd2ba"></stop></linearGradient><linearGradient id="b" x1="259.51" y1="38.73" x2="378.03" y2="38.73" gradientUnits="userSpaceOnUse"><stop offset="0" stop-color="#796eff"></stop><stop offset="1" stop-color="#f9a944"></stop></linearGradient></defs><g data-name="Layer 13"><path style="mix-blend-mode:multiply" fill="none" stroke="#bcc5cd" stroke-linecap="round" stroke-miterlimit="10" stroke-width="3.349" d="M47.26 185.6h50.69v97.53H47.26z"></path><path d="M463 318.17a52.64 52.64 0 010-105.27z" opacity=".58" fill="url(#a)"></path><path opacity=".55" fill="url(#b)" d="M259.51 21.99h118.52v33.5H259.51z"></path><path fill="none" stroke="#231b3c" stroke-linecap="round" stroke-miterlimit="10" stroke-width="3.259" d="M80.08 55.82h357.3V256.8H80.08z"></path><path style="mix-blend-mode:multiply" fill="none" stroke="#bcc5cd" stroke-miterlimit="10" stroke-width="3.349" d="M80.08 74.23h357.3"></path><circle cx="128.15" cy="106.75" r="3.07" fill="#6b3eff"></circle><circle cx="140.44" cy="106.75" r="3.07" fill="#6b3eff"></circle><path style="mix-blend-mode:multiply" fill="none" stroke="#bcc5cd" stroke-miterlimit="10" stroke-width="3.318" d="M161.51 164.1h37.29"></path><circle cx="151.32" cy="164.1" r="5.67" fill="#6b3eff"></circle><path style="mix-blend-mode:multiply" fill="none" stroke="#bcc5cd" stroke-miterlimit="10" stroke-width="3.318" d="M219.18 164.1h37.29"></path><circle cx="208.99" cy="164.1" r="5.67" fill="#6b3eff"></circle><circle cx="208.99" cy="164.1" r="5.67" fill="#6b3eff"></circle><path style="mix-blend-mode:multiply" fill="none" stroke="#bcc5cd" stroke-miterlimit="10" stroke-width="3.318" d="M276.86 164.1h37.29"></path><circle cx="266.67" cy="164.1" r="5.67" fill="#6b3eff"></circle><path style="mix-blend-mode:multiply" fill="none" stroke="#bcc5cd" stroke-miterlimit="10" stroke-width="3.318" d="M216.2 156.89l26.37-26.37"></path><circle cx="208.99" cy="164.1" r="5.67" fill="#6b3eff"></circle><path style="mix-blend-mode:multiply" fill="none" stroke="#bcc5cd" stroke-miterlimit="10" stroke-width="3.318" d="M334.53 164.1h37.29"></path><circle cx="324.34" cy="164.1" r="5.67" fill="#6b3eff"></circle><path style="mix-blend-mode:multiply" fill="none" stroke="#bcc5cd" stroke-miterlimit="10" stroke-width="3.349" d="M118.93 97.05h279.62v129.83H118.93z"></path><path style="mix-blend-mode:multiply" fill="none" stroke="#bcc5cd" stroke-miterlimit="10" stroke-width="3.318" d="M259.97 123.32h37.28"></path><circle cx="249.77" cy="123.32" r="5.67" fill="#6b3eff"></circle><circle cx="307.45" cy="123.32" r="5.67" fill="#6b3eff"></circle><path style="mix-blend-mode:multiply" fill="none" stroke="#bcc5cd" stroke-miterlimit="10" stroke-width="3.318" d="M273.87 171.27l26.37 26.36"></path><circle cx="266.67" cy="164.06" r="5.67" fill="#6b3eff"></circle><circle cx="307.45" cy="204.84" r="5.67" fill="#6b3eff"></circle></g></svg> 